<svg width="60" height="60" viewBox="0 0 60 60" fill="none" xmlns="http://www.w3.org/2000/svg">
<g clip-path="url(#clip0_47_7)">
<mask id="mask0_47_7" style="mask-type:luminance" maskUnits="userSpaceOnUse" x="0" y="0" width="60" height="60">
<path d="M0 0H60V60H0V0Z" fill="white"/>
</mask>
<g mask="url(#mask0_47_7)">
<path fill-rule="evenodd" clip-rule="evenodd" d="M0 30.1675C0 45.0825 10.8325 57.485 25 60V38.3325H17.5V30H25V23.3325C25 15.8325 29.8325 11.6675 36.6675 11.6675C38.8325 11.6675 41.1675 12 43.3325 12.3325V20H39.5C35.8325 20 35 21.8325 35 24.1675V30H43L41.6675 38.3325H35V60C49.1675 57.485 60 45.085 60 30.1675C60 13.575 46.5 0 30 0C13.5 0 0 13.575 0 30.1675Z" fill="#47B59A"/>
</g>
</g>
<defs>
<clipPath id="clip0_47_7">
<rect width="60" height="60" fill="white"/>
</clipPath>
</defs>
</svg>
