<svg width="60" height="60" viewBox="0 0 60 60" fill="none" xmlns="http://www.w3.org/2000/svg">
<path d="M30 0C13.4313 0 0 13.4313 0 30C0 46.5687 13.4313 60 30 60C46.5687 60 60 46.5687 60 30C60 13.4313 46.5687 0 30 0ZM22.6562 42.4344H16.5812V22.8844H22.6562V42.4344ZM19.5812 20.4844C17.6625 20.4844 16.4219 19.125 16.4219 17.4437C16.4219 15.7281 17.7 14.4094 19.6594 14.4094C21.6187 14.4094 22.8188 15.7281 22.8563 17.4437C22.8563 19.125 21.6187 20.4844 19.5812 20.4844ZM44.8438 42.4344H38.7688V31.6C38.7688 29.0781 37.8875 27.3656 35.6906 27.3656C34.0125 27.3656 33.0156 28.525 32.575 29.6406C32.4125 30.0375 32.3719 30.6 32.3719 31.1594V42.4312H26.2937V29.1188C26.2937 26.6781 26.2156 24.6375 26.1344 22.8812H31.4125L31.6906 25.5969H31.8125C32.6125 24.3219 34.5719 22.4406 37.85 22.4406C41.8469 22.4406 44.8438 25.1187 44.8438 30.875V42.4344Z" fill="#47B59A"/>
</svg>
