<svg width="60" height="60" viewBox="0 0 60 60" fill="none" xmlns="http://www.w3.org/2000/svg">
<circle cx="30" cy="30" r="30" fill="#47B59A"/>
<path d="M42.1165 18.8837C39.8999 17.8504 37.4999 17.1004 34.9999 16.6671C34.978 16.6664 34.9561 16.6705 34.936 16.6791C34.9158 16.6878 34.8978 16.7007 34.8832 16.7171C34.5832 17.2671 34.2332 17.9837 33.9999 18.5337C31.3482 18.1337 28.6515 18.1337 25.9999 18.5337C25.7665 17.9671 25.4165 17.2671 25.0999 16.7171C25.0832 16.6837 25.0332 16.6671 24.9832 16.6671C22.4832 17.1004 20.0999 17.8504 17.8665 18.8837C17.8499 18.8837 17.8332 18.9004 17.8165 18.9171C13.2832 25.7004 12.0332 32.3004 12.6499 38.8337C12.6499 38.8671 12.6665 38.9004 12.6999 38.9171C15.6999 41.1171 18.5832 42.4504 21.4332 43.3337C21.4832 43.3504 21.5332 43.3337 21.5499 43.3004C22.2165 42.3837 22.8165 41.4171 23.3332 40.4004C23.3665 40.3337 23.3332 40.2671 23.2665 40.2504C22.3165 39.8837 21.4165 39.4504 20.5332 38.9504C20.4665 38.9171 20.4665 38.8171 20.5165 38.7671C20.6999 38.6337 20.8832 38.4837 21.0665 38.3504C21.0999 38.3171 21.1499 38.3171 21.1832 38.3337C26.9165 40.9504 33.0999 40.9504 38.7665 38.3337C38.7999 38.3171 38.8499 38.3171 38.8832 38.3504C39.0665 38.5004 39.2499 38.6337 39.4332 38.7837C39.4999 38.8337 39.4999 38.9337 39.4165 38.9671C38.5499 39.4837 37.6332 39.9004 36.6832 40.2671C36.6165 40.2837 36.5999 40.3671 36.6165 40.4171C37.1499 41.4337 37.7499 42.4004 38.3999 43.3171C38.4499 43.3337 38.4999 43.3504 38.5499 43.3337C41.4165 42.4504 44.2999 41.1171 47.2999 38.9171C47.3332 38.9004 47.3499 38.8671 47.3499 38.8337C48.0832 31.2837 46.1332 24.7337 42.1832 18.9171C42.1665 18.9004 42.1499 18.8837 42.1165 18.8837ZM24.1999 34.8504C22.4832 34.8504 21.0499 33.2671 21.0499 31.3171C21.0499 29.3671 22.4499 27.7837 24.1999 27.7837C25.9665 27.7837 27.3665 29.3837 27.3499 31.3171C27.3499 33.2671 25.9499 34.8504 24.1999 34.8504ZM35.8165 34.8504C34.0999 34.8504 32.6665 33.2671 32.6665 31.3171C32.6665 29.3671 34.0665 27.7837 35.8165 27.7837C37.5832 27.7837 38.9832 29.3837 38.9665 31.3171C38.9665 33.2671 37.5832 34.8504 35.8165 34.8504Z" fill="#051821"/>
</svg>
