<svg width="442" height="326" viewBox="0 0 442 326" fill="none" xmlns="http://www.w3.org/2000/svg">
<g clip-path="url(#clip0_41_43)">
<path d="M313.735 239.102H75.7118C73.591 239.1 71.5577 238.258 70.0581 236.762C68.5584 235.266 67.7149 233.237 67.7124 231.121V37.7484C67.7149 35.6323 68.5584 33.6037 70.0581 32.1075C71.5577 30.6112 73.591 29.7695 75.7118 29.7671H313.735C315.856 29.7695 317.889 30.6112 319.389 32.1075C320.888 33.6037 321.732 35.6323 321.734 37.7484V231.121C321.732 233.237 320.888 235.266 319.389 236.762C317.889 238.258 315.856 239.1 313.735 239.102Z" fill="#E6E6E6"/>
<path d="M81.1093 35.4478C79.0663 35.4501 77.1077 36.2609 75.6632 37.7022C74.2187 39.1436 73.4061 41.0977 73.4038 43.136V225.737C73.4062 227.776 74.2188 229.73 75.6634 231.171C77.1079 232.612 79.0664 233.423 81.1093 233.425H244.027C263.121 233.404 281.426 225.826 294.928 212.356C308.429 198.885 316.023 180.621 316.045 161.57V43.136C316.043 41.0977 315.23 39.1436 313.786 37.7022C312.341 36.2609 310.383 35.4501 308.34 35.4478L81.1093 35.4478Z" fill="white"/>
<path d="M270.331 117.572H227.172C226.272 117.571 225.409 117.214 224.772 116.579C224.136 115.944 223.778 115.083 223.777 114.185V92.7522C223.778 91.8541 224.136 90.9931 224.772 90.358C225.409 89.723 226.272 89.3657 227.172 89.3647H270.331C271.231 89.3657 272.094 89.723 272.731 90.358C273.367 90.9931 273.725 91.8541 273.726 92.7522C276.397 100.337 276.776 107.543 273.726 114.185C273.725 115.083 273.367 115.944 272.731 116.579C272.094 117.214 271.231 117.571 270.331 117.572V117.572Z" fill="#E6E6E6"/>
<path d="M265.218 115.501H228.55C227.785 115.5 227.052 115.196 226.511 114.657C225.971 114.117 225.666 113.386 225.666 112.623V94.4136C225.666 93.6506 225.971 92.9191 226.511 92.3795C227.052 91.84 227.785 91.5365 228.55 91.5356H265.218C265.983 91.5365 266.716 91.84 267.257 92.3795C267.798 92.9191 268.102 93.6506 268.103 94.4136C270.577 100.899 270.976 107.035 268.103 112.623C268.102 113.386 267.798 114.117 267.257 114.657C266.716 115.196 265.983 115.5 265.218 115.501V115.501Z" fill="white"/>
<path d="M263.241 128.799H234.167C233.312 128.8 232.491 128.462 231.885 127.86C231.279 127.258 230.938 126.44 230.937 125.587C230.935 124.733 231.273 123.914 231.877 123.31C232.48 122.705 233.3 122.364 234.155 122.362H263.241C264.095 122.364 264.914 122.704 265.518 123.307C266.121 123.91 266.46 124.728 266.46 125.581C266.46 126.433 266.121 127.251 265.518 127.854C264.914 128.458 264.095 128.797 263.241 128.799V128.799Z" fill="#E6E6E6"/>
<path d="M243.693 96.4521C243.358 96.4533 243.038 96.5865 242.802 96.8226C242.565 97.0588 242.432 97.3786 242.432 97.7124V111.354C242.432 111.574 242.49 111.791 242.6 111.982C242.71 112.173 242.868 112.331 243.059 112.442C243.25 112.553 243.467 112.611 243.688 112.612C243.908 112.613 244.125 112.556 244.317 112.447L256.385 105.582C256.579 105.471 256.741 105.312 256.852 105.119C256.964 104.927 257.023 104.708 257.022 104.485C257.022 104.262 256.962 104.044 256.849 103.852C256.736 103.66 256.574 103.501 256.379 103.392L244.312 96.6154C244.123 96.5087 243.91 96.4525 243.693 96.4521V96.4521Z" fill="#E6E6E6"/>
<path d="M419.76 299.9C419.094 299.055 418.19 298.429 417.164 298.102C416.139 297.775 415.039 297.762 414.005 298.065L413.779 298.131L411.753 306.025C411.45 304.848 410.8 302.193 410.391 299.593L410.355 299.378L410.154 299.466C408.036 300.401 406.044 301.598 404.227 303.031C401.007 305.608 398.389 308.853 396.553 312.541C394.717 316.23 393.709 320.273 393.597 324.389L393.594 324.541L393.59 324.636L393.859 324.541L399.616 322.487C402.166 322.711 404.733 322.365 407.131 321.473C409.528 320.581 411.696 319.166 413.476 317.331C415.802 314.883 417.398 311.734 418.941 308.687C419.392 307.8 419.855 306.884 420.328 306.004C420.856 305.046 421.084 303.953 420.982 302.865C420.881 301.777 420.455 300.744 419.76 299.9V299.9Z" fill="#F2F2F2"/>
<path d="M272.724 98.6126C272.839 99.2101 273.085 99.7751 273.443 100.268C273.801 100.76 274.263 101.169 274.796 101.464C275.33 101.759 275.921 101.934 276.53 101.977C277.138 102.019 277.749 101.928 278.318 101.709L295.526 121.682L297.704 114.309L280.644 96.036C280.213 95.1061 279.455 94.3663 278.514 93.9567C277.572 93.5472 276.513 93.4965 275.537 93.8141C274.561 94.1317 273.735 94.7956 273.216 95.68C272.698 96.5644 272.523 97.6079 272.724 98.6126L272.724 98.6126Z" fill="#FFB8B8"/>
<path d="M342.076 319.766H336.381L333.672 297.851H342.077L342.076 319.766Z" fill="#FFB6B6"/>
<path d="M341.924 317.91L335.844 315.443L335.67 315.372L332.313 317.91C330.417 317.911 328.599 318.662 327.259 319.999C325.919 321.337 325.166 323.15 325.165 325.041V325.273H343.527V317.91H341.924Z" fill="#2F2E41"/>
<path d="M382.7 319.766H377.006L374.296 297.851H382.701L382.7 319.766Z" fill="#FFB6B6"/>
<path d="M382.548 317.91L376.468 315.443L376.294 315.372L372.937 317.91C371.041 317.911 369.224 318.662 367.883 319.999C366.543 321.337 365.79 323.15 365.79 325.041V325.273H384.151V317.91H382.548Z" fill="#2F2E41"/>
<path d="M369.26 188.896C369.26 188.896 376.403 196.31 376.403 202.402C376.403 208.493 374.617 216.858 376.403 218.689C378.188 220.519 380.421 222.747 377.742 225.419C375.063 228.091 373.724 229.428 375.51 231.209C377.296 232.991 376.403 264.169 376.403 264.169L385.778 306.038H373.967L358.992 264.169L354.974 229.428L341.981 262.833L343.415 306.397L331.068 306.038L325.957 259.715C325.957 259.715 333.546 215.651 332.207 214.522C330.868 213.393 332.207 211.113 332.207 211.113L335.778 194.24L369.26 188.896Z" fill="#2F2E41"/>
<path d="M355.275 136.329C355.275 136.329 357.704 126.78 346.515 124.042C335.325 121.305 303.341 117.787 303.341 117.787L287.177 100.674L281.7 108.61L299.82 131.077L342.755 139.876L355.275 136.329Z" fill="#3F3D56"/>
<path d="M284.362 108.026C284.864 107.377 285.256 106.651 285.525 105.876L287.843 100.193L287.241 100.168C286.408 100.012 285.552 100.033 284.728 100.23C283.904 100.427 283.131 100.795 282.46 101.311C281.788 101.827 281.234 102.478 280.833 103.223C280.432 103.967 280.192 104.788 280.131 105.631C280.055 106.361 280.187 107.096 280.51 107.755C280.675 108.081 280.915 108.364 281.21 108.58C281.505 108.796 281.848 108.94 282.209 108.998C282.62 109.02 283.03 108.943 283.404 108.774C283.779 108.605 284.107 108.348 284.362 108.026V108.026Z" fill="#E6E6E6"/>
<path d="M333.499 196.516L332.159 206.202C332.159 206.202 334.838 209.072 336.177 208.714C337.517 208.355 342.427 206.266 342.427 206.266C342.427 206.266 348.231 209.431 351.356 209.79C354.481 210.149 370.998 207.996 371.445 206.92C371.891 205.843 377.08 201.63 377.08 201.63L375.016 189.341L333.499 196.516Z" fill="#E6E6E6"/>
<path d="M376.993 162.63C376.993 162.63 375.86 171.97 376.752 172.83C377.645 173.685 375.86 179.097 374.074 182.66C372.288 186.223 375.413 186.669 375.413 189.341C375.413 192.014 376.752 201.813 376.752 201.813C376.752 201.813 362.913 202.703 360.681 200.476C358.449 198.249 354.878 200.031 349.967 204.93C345.057 209.83 334.392 205.821 332.159 203.594C329.927 201.367 333.896 193.35 335.235 191.795C336.575 190.241 333.945 192.04 332.606 187.114C331.267 182.188 333.896 182.66 336.128 180.433C338.36 178.206 336.128 174.197 334.342 170.189C332.557 166.18 333.896 136.338 333.896 129.211C333.896 122.085 343.717 121.194 343.717 121.194L347.606 116.317L350.463 112.731L356.061 112.508L356.208 112.504L361.623 112.286L364.253 115.341L370.056 122.085L376.752 123.421C382.109 125.202 380.77 136.338 380.77 136.338L376.993 162.63Z" fill="#3F3D56"/>
<path d="M355.785 110.576C362.122 110.576 367.26 105.45 367.26 99.1266C367.26 92.8033 362.122 87.6772 355.785 87.6772C349.447 87.6772 344.309 92.8033 344.309 99.1266C344.309 105.45 349.447 110.576 355.785 110.576Z" fill="#FFB6B6"/>
<path d="M369.09 95.2753C365.934 93.344 366.338 88.2943 363.297 86.531C361.785 85.6616 360.086 85.1695 358.343 85.0964C356.6 85.0234 354.865 85.3716 353.285 86.1114C351.143 85.1971 348.577 85.9268 346.863 87.5778C345.15 89.2289 344.222 91.6645 343.949 94.1141C343.751 96.5751 343.928 99.0519 344.474 101.46C344.644 100.492 344.815 99.5249 344.985 98.5574L354.031 96.5847C353.23 97.3026 352.43 98.0205 351.629 98.7384C355.726 99.669 360.025 98.9982 363.641 96.864C367.58 98.6255 366.866 102.582 363.409 107.832C364.748 110.059 372.686 97.4759 369.09 95.2753Z" fill="#2F2E41"/>
<path d="M364.253 115.341C364.227 115.362 364.2 115.381 364.172 115.399C363.227 115.962 362.144 116.255 361.043 116.245C359.602 116.365 358.171 115.918 357.056 114.998C356.472 114.446 354.146 115.613 352.619 116.259C351.018 116.921 349.222 116.942 347.606 116.317L350.463 112.731L355.172 111.689H356.347L361.623 112.286L364.253 115.341Z" fill="#E6E6E6"/>
<path d="M441.304 325.82L281.568 326C281.476 326.001 281.385 325.983 281.3 325.948C281.215 325.914 281.137 325.863 281.072 325.798C281.007 325.734 280.955 325.657 280.919 325.572C280.883 325.488 280.865 325.397 280.864 325.306C280.864 325.214 280.881 325.123 280.916 325.038C280.951 324.953 281.002 324.876 281.067 324.811C281.131 324.746 281.208 324.694 281.293 324.658C281.378 324.623 281.469 324.604 281.561 324.604H281.568L441.304 324.423C441.489 324.424 441.666 324.498 441.796 324.629C441.927 324.76 442 324.937 442 325.122C442 325.306 441.927 325.483 441.796 325.614C441.666 325.745 441.489 325.819 441.304 325.82V325.82Z" fill="#CACACA"/>
<path d="M250.042 91.3098H248.867V7.41943H295.102V8.59237H250.042V91.3098Z" fill="#3F3D56"/>
<path d="M331.059 0H299.905C297.878 0 295.935 0.803255 294.502 2.23305C293.069 3.66285 292.264 5.60207 292.264 7.62411C292.264 9.64615 293.069 11.5854 294.502 13.0152C295.935 14.445 297.878 15.2482 299.905 15.2482H331.059C333.085 15.2482 335.029 14.445 336.462 13.0152C337.895 11.5854 338.7 9.64615 338.7 7.62411C338.7 5.60207 337.895 3.66285 336.462 2.23305C335.029 0.803255 333.085 0 331.059 0V0Z" fill="#6C63FF"/>
<path d="M248.772 98.9845C252.65 98.9845 255.794 95.8478 255.794 91.9786C255.794 88.1093 252.65 84.9727 248.772 84.9727C244.894 84.9727 241.75 88.1093 241.75 91.9786C241.75 95.8478 244.894 98.9845 248.772 98.9845Z" fill="#6C63FF"/>
<path d="M164.157 118.304L194.962 111.192L203.804 109.15C204.91 108.895 204.45 107.196 203.344 107.451L172.539 114.564L163.697 116.605C162.591 116.86 163.05 118.559 164.157 118.304H164.157Z" fill="#F2F2F2"/>
<path d="M195.967 99.7817L212.458 107.35C213.021 107.545 213.548 107.829 214.018 108.193C214.473 108.638 214.142 109.066 213.771 109.453C212.661 110.488 211.489 111.453 210.261 112.344L203.235 118.043C202.353 118.758 203.597 120.007 204.471 119.298L210.59 114.334L213.65 111.853C214.517 111.149 215.572 110.432 215.92 109.312C216.652 106.959 213.764 106.023 212.159 105.286L204.977 101.99L196.865 98.267C195.842 97.7977 194.937 99.3089 195.967 99.7817V99.7817Z" fill="#F2F2F2"/>
<path d="M423.537 157.399C420.6 155.412 417.03 154.673 413.542 154.423C409.577 154.207 405.602 154.212 401.638 154.437C397.519 154.599 393.409 154.897 389.308 155.329C385.212 155.761 381.133 156.328 377.072 157.029C373.435 157.594 369.837 158.379 366.296 159.382C362.945 160.307 359.789 161.828 356.979 163.871C354.512 165.722 352.615 168.227 351.503 171.099C350.412 173.794 350.226 176.769 350.974 179.577C351.373 180.942 352.055 182.207 352.977 183.29C354.043 184.479 355.305 185.476 356.709 186.238C359.623 187.898 362.925 188.897 365.561 191.022C366.256 191.578 366.89 192.207 367.451 192.897C367.832 193.431 368.359 193.845 368.969 194.089C369.547 194.29 370.172 194.316 370.765 194.164C371.358 194.012 371.893 193.688 372.301 193.233C372.829 192.512 373.269 191.731 373.613 190.907L375.003 188.23C375.096 187.996 375.213 187.772 375.351 187.561C375.455 187.437 375.269 187.563 375.304 187.531C375.324 187.513 375.364 187.513 375.386 187.499C375.501 187.442 375.622 187.396 375.745 187.362C377.032 186.872 378.324 186.398 379.622 185.94C384.412 184.236 389.26 182.666 394.184 181.395C396.718 180.717 399.288 180.18 401.882 179.788C405.242 179.311 408.652 179.366 412.027 179.04C415.661 178.688 419.41 177.954 422.527 175.958C425.103 174.396 427.088 172.026 428.171 169.218C428.64 167.88 428.801 166.453 428.641 165.045C428.237 161.858 426.15 159.166 423.537 157.399Z" fill="#E6E6E6"/>
<path d="M417.525 159.19C414.87 157.394 411.645 156.727 408.492 156.5C404.909 156.306 401.317 156.31 397.735 156.513C394.013 156.66 390.299 156.929 386.592 157.319C382.891 157.71 379.205 158.222 375.535 158.855C372.249 159.366 368.997 160.076 365.797 160.982C362.769 161.818 359.917 163.192 357.377 165.039C355.148 166.711 353.434 168.974 352.429 171.571C351.443 174.005 351.275 176.694 351.951 179.232C352.312 180.465 352.928 181.608 353.761 182.587C354.724 183.661 355.865 184.562 357.134 185.251C359.767 186.751 362.751 187.653 365.133 189.574C365.761 190.077 366.334 190.645 366.841 191.268C367.186 191.751 367.662 192.125 368.213 192.345C368.735 192.527 369.3 192.551 369.836 192.413C370.372 192.276 370.855 191.983 371.224 191.572C371.701 190.921 372.099 190.215 372.409 189.47L373.666 187.051C373.75 186.839 373.855 186.637 373.98 186.446C374.074 186.334 373.906 186.449 373.938 186.419C373.955 186.403 373.992 186.403 374.012 186.39C374.116 186.339 374.225 186.297 374.336 186.266C375.499 185.824 376.666 185.396 377.839 184.981C382.168 183.442 386.549 182.023 390.999 180.874C393.289 180.261 395.611 179.777 397.955 179.422C400.991 178.991 404.074 179.041 407.123 178.746C410.407 178.428 413.795 177.765 416.611 175.961C418.94 174.549 420.733 172.407 421.712 169.87C422.136 168.661 422.281 167.372 422.137 166.099C421.771 163.219 419.885 160.787 417.525 159.19Z" fill="white"/>
<path d="M411.964 162.433L368.701 170.394C368.577 170.418 368.45 170.416 368.327 170.391C368.203 170.365 368.086 170.316 367.982 170.245C367.878 170.174 367.789 170.084 367.72 169.978C367.651 169.873 367.604 169.755 367.581 169.632C367.558 169.508 367.559 169.382 367.585 169.259C367.611 169.136 367.661 169.019 367.732 168.915C367.804 168.812 367.895 168.723 368 168.655C368.106 168.586 368.224 168.539 368.348 168.517L368.354 168.516L411.617 160.554C411.74 160.532 411.867 160.533 411.99 160.56C412.113 160.586 412.23 160.636 412.333 160.707C412.437 160.778 412.525 160.869 412.594 160.974C412.662 161.079 412.709 161.197 412.732 161.32C412.755 161.444 412.753 161.57 412.727 161.693C412.7 161.816 412.65 161.932 412.579 162.035C412.508 162.138 412.417 162.227 412.311 162.295C412.206 162.363 412.088 162.41 411.964 162.433V162.433Z" fill="#E6E6E6"/>
<path d="M413.03 168.197L369.767 176.159C369.643 176.182 369.516 176.181 369.393 176.155C369.269 176.13 369.152 176.08 369.048 176.009C368.944 175.939 368.855 175.848 368.786 175.743C368.717 175.638 368.67 175.52 368.647 175.396C368.624 175.273 368.625 175.146 368.651 175.023C368.677 174.9 368.727 174.784 368.798 174.68C368.87 174.576 368.961 174.488 369.066 174.419C369.172 174.351 369.29 174.304 369.414 174.281L369.42 174.28L412.683 166.319C412.806 166.296 412.933 166.298 413.056 166.324C413.179 166.35 413.295 166.401 413.399 166.472C413.503 166.543 413.591 166.634 413.659 166.739C413.728 166.844 413.775 166.962 413.797 167.085C413.82 167.208 413.818 167.335 413.792 167.458C413.766 167.58 413.716 167.697 413.645 167.8C413.573 167.903 413.482 167.991 413.377 168.06C413.271 168.128 413.153 168.175 413.03 168.197V168.197Z" fill="#E6E6E6"/>
<path d="M375.874 180.995L370.832 181.923C370.583 181.968 370.326 181.913 370.118 181.769C369.909 181.625 369.767 181.405 369.721 181.156C369.675 180.908 369.729 180.651 369.873 180.443C370.016 180.235 370.236 180.091 370.485 180.045L375.527 179.117C375.776 179.072 376.033 179.127 376.242 179.271C376.45 179.414 376.593 179.635 376.639 179.883C376.685 180.132 376.63 180.389 376.487 180.597C376.343 180.806 376.123 180.949 375.874 180.995V180.995Z" fill="#E6E6E6"/>
<path d="M372.222 204.961C374.431 204.555 375.892 202.438 375.485 200.233C375.077 198.029 372.955 196.571 370.746 196.978C368.536 197.384 367.075 199.501 367.483 201.706C367.89 203.91 370.012 205.368 372.222 204.961Z" fill="#D1D3D4"/>
<path d="M148.327 116.486H111.374C109.659 116.484 108.014 115.804 106.801 114.593C105.588 113.383 104.906 111.742 104.904 110.031V85.7316C104.906 84.0201 105.588 82.3792 106.801 81.1689C108.014 79.9587 109.659 79.2779 111.374 79.2759H148.327C150.043 79.2779 151.687 79.9587 152.9 81.1689C154.113 82.3792 154.796 84.0201 154.798 85.7316V110.031C154.796 111.742 154.113 113.383 152.9 114.593C151.687 115.804 150.043 116.484 148.327 116.486V116.486Z" fill="#E6E6E6"/>
<path d="M144.266 115.177H112.105C110.612 115.175 109.181 114.583 108.125 113.529C107.07 112.476 106.476 111.048 106.474 109.558V88.4105C106.476 86.9209 107.07 85.4929 108.125 84.4396C109.181 83.3863 110.612 82.7937 112.105 82.792H144.266C145.759 82.7937 147.191 83.3863 148.246 84.4396C149.302 85.4929 149.896 86.9209 149.898 88.4105V109.558C149.896 111.048 149.302 112.476 148.246 113.529C147.191 114.583 145.759 115.175 144.266 115.177V115.177Z" fill="white"/>
<path d="M153.532 138.378H106.117C105.824 138.377 105.543 138.261 105.336 138.054C105.129 137.847 105.013 137.567 105.013 137.274C105.013 136.982 105.129 136.702 105.336 136.495C105.543 136.288 105.824 136.171 106.117 136.17H153.532C153.825 136.171 154.106 136.288 154.313 136.495C154.52 136.702 154.636 136.982 154.636 137.274C154.636 137.567 154.52 137.847 154.313 138.054C154.106 138.261 153.825 138.377 153.532 138.378V138.378Z" fill="#E6E6E6"/>
<path d="M153.532 132.071H106.117C105.824 132.07 105.543 131.953 105.336 131.746C105.129 131.539 105.013 131.259 105.013 130.967C105.013 130.674 105.129 130.394 105.336 130.187C105.543 129.98 105.824 129.863 106.117 129.863H153.532C153.825 129.863 154.106 129.98 154.313 130.187C154.52 130.394 154.636 130.674 154.636 130.967C154.636 131.259 154.52 131.539 154.313 131.746C154.106 131.953 153.825 132.07 153.532 132.071V132.071Z" fill="#E6E6E6"/>
<path d="M153.532 144.686H106.117C105.823 144.686 105.542 144.569 105.334 144.362C105.127 144.155 105.01 143.875 105.01 143.582C105.01 143.289 105.127 143.008 105.334 142.801C105.542 142.594 105.823 142.478 106.117 142.478H153.532C153.826 142.478 154.107 142.594 154.315 142.801C154.522 143.008 154.639 143.289 154.639 143.582C154.639 143.875 154.522 144.155 154.315 144.362C154.107 144.569 153.826 144.686 153.532 144.686Z" fill="#E6E6E6"/>
<path d="M153.532 150.993H106.117C105.823 150.993 105.542 150.877 105.334 150.67C105.127 150.463 105.01 150.182 105.01 149.889C105.01 149.597 105.127 149.316 105.334 149.109C105.542 148.902 105.823 148.786 106.117 148.786H153.532C153.826 148.786 154.107 148.902 154.315 149.109C154.522 149.316 154.639 149.597 154.639 149.889C154.639 150.182 154.522 150.463 154.315 150.67C154.107 150.877 153.826 150.993 153.532 150.993V150.993Z" fill="#E6E6E6"/>
<path d="M153.532 157.301H106.117C105.823 157.301 105.542 157.185 105.334 156.978C105.127 156.771 105.01 156.49 105.01 156.198C105.01 155.905 105.127 155.624 105.334 155.417C105.542 155.21 105.823 155.094 106.117 155.094H153.532C153.826 155.094 154.107 155.21 154.315 155.417C154.522 155.624 154.639 155.905 154.639 156.198C154.639 156.49 154.522 156.771 154.315 156.978C154.107 157.185 153.826 157.301 153.532 157.301Z" fill="#E6E6E6"/>
<path d="M153.532 163.609H106.117C105.824 163.608 105.543 163.492 105.336 163.285C105.129 163.078 105.013 162.798 105.013 162.505C105.013 162.213 105.129 161.933 105.336 161.726C105.543 161.519 105.824 161.402 106.117 161.401H153.532C153.825 161.402 154.106 161.519 154.313 161.726C154.52 161.933 154.636 162.213 154.636 162.505C154.636 162.798 154.52 163.078 154.313 163.285C154.106 163.492 153.825 163.608 153.532 163.609V163.609Z" fill="#E6E6E6"/>
<path d="M127.454 149.143H128.629V194.326H43.5991V193.154H127.454V149.143Z" fill="#3F3D56"/>
<path d="M7.64146 201.746H38.7951C40.8218 201.746 42.7654 200.943 44.1984 199.513C45.6315 198.083 46.4366 196.144 46.4366 194.122C46.4366 192.1 45.6315 190.16 44.1984 188.731C42.7654 187.301 40.8218 186.498 38.7951 186.498H7.64146C5.61482 186.498 3.67119 187.301 2.23813 188.731C0.805083 190.16 0 192.1 0 194.122C0 196.144 0.805083 198.083 2.23813 199.513C3.67119 200.943 5.61482 201.746 7.64146 201.746Z" fill="#6C63FF"/>
<path d="M128.86 152.547C132.738 152.547 135.882 149.411 135.882 145.542C135.882 141.672 132.738 138.536 128.86 138.536C124.982 138.536 121.838 141.672 121.838 145.542C121.838 149.411 124.982 152.547 128.86 152.547Z" fill="#6C63FF"/>
<path d="M165.154 147.488C175.463 149.674 172.841 150.101 183.15 152.287L192.028 154.17C193.138 154.405 193.442 152.672 192.331 152.436C182.022 150.25 184.644 149.823 174.335 147.637L165.458 145.755C164.347 145.519 164.043 147.253 165.154 147.488H165.154Z" fill="#F2F2F2"/>
<path d="M188.899 142.373L200.632 156.192C201.06 156.605 201.416 157.086 201.689 157.614C201.912 158.21 201.431 158.457 200.93 158.652C199.486 159.12 198.014 159.5 196.524 159.789L187.741 161.988C186.639 162.263 187.237 163.92 188.329 163.647L195.978 161.732L199.803 160.775C200.887 160.503 202.147 160.299 202.937 159.431C204.598 157.607 202.378 155.541 201.236 154.196L196.127 148.178L190.355 141.38C189.627 140.523 188.166 141.51 188.899 142.373V142.373Z" fill="#F2F2F2"/>
<path d="M226.101 202.611C235.119 202.611 242.43 195.316 242.43 186.319C242.43 177.321 235.119 170.026 226.101 170.026C217.082 170.026 209.771 177.321 209.771 186.319C209.771 195.316 217.082 202.611 226.101 202.611Z" fill="#E6E6E6"/>
<path d="M224.509 200.533C231.365 200.533 236.923 194.988 236.923 188.148C236.923 181.307 231.365 175.762 224.509 175.762C217.653 175.762 212.095 181.307 212.095 188.148C212.095 194.988 217.653 200.533 224.509 200.533Z" fill="white"/>
<path d="M222.281 196.627C221.999 196.627 221.721 196.562 221.469 196.436C221.217 196.31 220.998 196.127 220.828 195.902L216.374 189.976C216.23 189.786 216.126 189.569 216.067 189.338C216.007 189.108 215.994 188.868 216.028 188.632C216.062 188.397 216.141 188.17 216.263 187.965C216.384 187.76 216.545 187.581 216.736 187.439C216.926 187.296 217.143 187.192 217.375 187.133C217.606 187.073 217.846 187.06 218.082 187.094C218.318 187.127 218.545 187.207 218.751 187.328C218.956 187.449 219.135 187.609 219.279 187.8L219.28 187.801L222.194 191.678L229.68 180.475C229.812 180.277 229.982 180.107 230.18 179.974C230.379 179.841 230.601 179.749 230.835 179.702C231.069 179.655 231.31 179.655 231.544 179.701C231.779 179.747 232.001 179.839 232.2 179.971C232.399 180.103 232.569 180.273 232.702 180.471C232.835 180.669 232.927 180.891 232.974 181.125C233.021 181.358 233.021 181.599 232.974 181.832C232.928 182.066 232.835 182.288 232.703 182.486L223.793 195.82C223.632 196.061 223.415 196.261 223.161 196.401C222.907 196.541 222.622 196.619 222.332 196.627C222.315 196.627 222.298 196.627 222.281 196.627Z" fill="#E6E6E6"/>
<path d="M378.576 203.102C379.102 202.794 379.553 202.374 379.899 201.873C380.244 201.371 380.476 200.8 380.576 200.2C380.677 199.6 380.644 198.985 380.481 198.399C380.317 197.812 380.027 197.269 379.63 196.807L392.742 173.947L385.049 174.364L373.494 196.516C372.76 197.233 372.314 198.193 372.242 199.215C372.17 200.237 372.477 201.25 373.103 202.062C373.729 202.873 374.633 203.428 375.641 203.619C376.65 203.811 377.694 203.627 378.576 203.102H378.576Z" fill="#FFB8B8"/>
<path d="M363.808 122.975C363.808 122.975 377.694 118.521 381.266 129.211C384.837 139.901 396.843 168.852 396.843 168.852L383.944 195.132L378.141 188.896L384.343 170.634L366.486 143.91L363.808 122.975Z" fill="#3F3D56"/>
<path d="M384.387 192.448C383.969 191.742 383.438 191.109 382.817 190.573L378.386 186.318L378.14 186.867C377.685 187.58 377.387 188.382 377.265 189.218C377.143 190.055 377.2 190.908 377.431 191.721C377.662 192.534 378.063 193.289 378.608 193.937C379.152 194.585 379.827 195.111 380.59 195.48C381.24 195.821 381.974 195.972 382.707 195.916C383.072 195.885 383.424 195.767 383.735 195.574C384.045 195.38 384.306 195.116 384.494 194.803C384.667 194.43 384.747 194.022 384.728 193.612C384.71 193.202 384.592 192.803 384.387 192.448V192.448Z" fill="#E6E6E6"/>
<path d="M225.959 208.237H224.784V253.42H264.553V252.247H225.959V208.237Z" fill="#3F3D56"/>
<path d="M308.152 253.215C308.15 251.194 307.344 249.256 305.912 247.826C304.479 246.397 302.536 245.593 300.51 245.591H269.357C267.33 245.591 265.387 246.395 263.953 247.824C262.52 249.254 261.715 251.193 261.715 253.215C261.715 255.237 262.52 257.177 263.953 258.606C265.387 260.036 267.33 260.84 269.357 260.84H300.51C302.536 260.838 304.479 260.034 305.912 258.604C307.344 257.175 308.15 255.237 308.152 253.215Z" fill="#6C63FF"/>
<path d="M224.553 211.642C228.431 211.642 231.574 208.505 231.574 204.636C231.574 200.767 228.431 197.63 224.553 197.63C220.675 197.63 217.531 200.767 217.531 204.636C217.531 208.505 220.675 211.642 224.553 211.642Z" fill="#6C63FF"/>
</g>
<defs>
<clipPath id="clip0_41_43">
<rect width="442" height="326" fill="white"/>
</clipPath>
</defs>
</svg>
