<svg width="598" height="444" viewBox="0 0 598 444" fill="none" xmlns="http://www.w3.org/2000/svg">
<g clip-path="url(#clip0_41_10)">
<path d="M550.917 107.93C483.045 13.5244 339.669 -24.7707 198.663 16.474C124.118 38.2788 52.2421 81.9681 16.6223 166.564C-47.0519 317.79 86.6401 366.087 174.06 381.48C216.332 388.924 256.144 401.427 292.526 418.45C357.979 449.075 473.835 476.213 561.198 348.643C624.52 256.18 596.126 170.814 550.917 107.93Z" fill="#051821"/>
<path d="M157.418 126.608C157.229 125.107 156.845 123.638 156.276 122.236C156.204 121.971 156.077 121.724 155.903 121.511C155.73 121.298 155.514 121.123 155.27 120.997C154.943 120.912 154.6 120.909 154.271 120.986L149.144 121.77C148.715 121.79 148.304 121.95 147.975 122.225C147.307 122.927 147.964 124.057 147.944 125.025C147.921 126.114 146.953 126.998 145.903 127.291C144.832 127.507 143.727 127.493 142.661 127.25L135.492 126.137C137.604 125.463 139.483 124.21 140.915 122.519C141.859 121.402 142.361 119.317 140.997 118.788C140.592 118.677 140.17 118.643 139.752 118.688C136.504 118.713 133.948 116.002 130.908 114.861C128.962 114.177 126.849 114.126 124.873 114.715C122.896 115.304 121.156 116.503 119.902 118.14L123.721 118.324C124.08 118.304 124.436 118.399 124.738 118.595C125.575 119.283 124.535 120.603 124.652 121.679C124.806 123.078 126.663 123.376 128.063 123.518C129.463 123.659 131.24 124.796 130.566 126.031C123.529 128.454 116.367 121.295 108.977 122.176C107.106 122.399 105.34 123.134 103.513 123.596C92.3572 126.417 80.8236 118.889 69.4268 120.483C66.8932 120.915 64.403 121.572 61.9859 122.445C60.4348 122.954 58.8169 123.504 57.6899 124.685C56.5629 125.865 56.1339 127.885 57.2016 129.119C54.2588 129.361 51.2963 129.08 48.4518 128.288C49.221 128.715 49.8609 129.342 50.3044 130.101C50.7478 130.861 50.9784 131.726 50.972 132.606C46.3772 133.355 41.904 134.718 37.6728 136.659C38.4625 137.972 39.3848 139.2 40.4254 140.325L34.6084 144.06C36.5737 144.555 37.5897 147.234 36.4469 148.907C38.4846 148.001 39.7475 145.656 41.9266 145.181C43.3541 144.87 44.8067 145.454 46.1609 146.002C47.5152 146.55 49.0037 147.082 50.4056 146.67C51.8075 146.259 52.8416 144.442 51.9508 143.284C57.943 141.537 64.1359 140.569 70.3759 140.407C70.8573 140.346 71.3455 140.439 71.7713 140.671C72.5836 141.235 72.3699 142.451 72.3261 143.439C72.2824 144.426 73.0522 145.723 73.9349 145.278C72.8964 146.179 73.7842 147.873 74.7806 148.82C75.7769 149.766 76.9778 151.073 76.3678 152.304C76.2086 152.625 75.9386 152.882 75.7854 153.207C75.3333 154.164 76.0512 155.28 76.898 155.916C77.7447 156.551 78.782 156.995 79.3702 157.876C79.9584 158.756 79.6913 160.297 78.6395 160.42L75.6498 156.625C74.6284 157.684 73.9281 159.01 73.6302 160.451C76.8005 163.041 77.2774 168.314 74.6232 171.431C73.2669 173.024 71.3381 173.991 69.6547 175.234C67.9712 176.476 66.4135 178.245 66.4178 180.337C66.4251 183.95 66.1297 187.308 67.4844 190.658C69.9824 196.836 72.8665 202.85 76.1196 208.666C76.9739 210.193 78.078 211.867 79.8085 212.13C77.6214 206.808 75.6526 201.403 73.902 195.915C75.0422 195.92 76.3598 196.01 77.0282 196.934C77.5817 197.698 77.4628 198.738 77.6348 199.666C77.8535 200.565 78.2183 201.422 78.7145 202.203L89.1586 220.799C90.0244 222.341 91.0175 223.995 92.6723 224.62C93.7302 225.019 94.9542 224.944 95.928 225.518C96.6912 225.969 97.2053 226.768 97.9834 227.192C100.183 228.392 103.243 226.091 105.299 227.524C105.887 227.933 106.261 228.584 106.803 229.053C108.702 230.697 111.817 229.597 114.009 230.823C115.422 231.613 116.154 233.194 116.907 234.626C118.795 238.214 121.849 241.729 125.894 242.014C127.165 242.104 128.463 241.863 129.705 242.146C130.947 242.428 132.17 243.512 131.97 244.769C131.629 246.926 132.694 249.286 132.408 251.45C131.887 255.392 126.293 257.125 125.812 261.072C125.707 261.936 125.872 262.828 125.666 263.674C125.414 264.711 124.635 265.555 124.358 266.586C123.833 268.539 125.233 270.482 126.771 271.796C128.309 273.11 130.143 274.243 130.984 276.082C131.872 278.026 131.436 280.293 131.725 282.411C132.356 287.034 136.35 290.461 140.462 292.671C141.714 293.344 143.059 293.996 143.87 295.164C144.928 296.689 144.823 298.698 145.176 300.52C146.042 304.981 149.799 308.657 149.906 313.2C149.981 316.429 148.186 319.359 147.113 322.405C146.107 325.325 145.743 328.426 146.046 331.499C146.349 334.571 147.311 337.542 148.867 340.209C149.669 341.564 150.629 342.841 151.197 344.309C152.21 346.929 151.881 349.908 152.815 352.557C154.05 356.059 157.443 358.952 157.118 362.652C158.658 365.85 162.06 367.421 165.48 368.372L171.611 370.078C172.784 370.405 174.011 370.734 175.206 370.497C176.401 370.261 177.542 369.269 177.511 368.051C174.505 367.374 171.402 366.653 168.924 364.822C166.446 362.991 164.749 359.73 165.689 356.797C166.125 355.437 167.052 353.866 166.171 352.742C165.666 352.098 164.742 351.93 164.173 351.343C163.285 350.427 163.59 348.889 164.228 347.784C164.867 346.68 165.79 345.693 166.048 344.444C166.178 343.745 166.091 343.023 165.799 342.375C165.506 341.727 165.023 341.183 164.413 340.818C165.55 340.389 166.584 339.726 167.447 338.872C168.245 337.961 168.614 336.557 167.986 335.521C169.85 335.757 172.051 335.873 173.274 334.448C174.252 333.31 174.184 331.608 173.798 330.159C173.412 328.71 172.76 327.302 172.739 325.802C177.039 326.006 181.349 325.86 185.625 325.366C185.006 323.284 183.601 321.525 181.707 320.462C183.644 320.134 185.408 317.816 186.02 315.951C186.632 314.085 186.476 312.053 186.098 310.126C185.953 309.63 185.933 309.106 186.04 308.6C186.258 307.905 186.941 307.482 187.572 307.119L197.185 301.6C197.759 301.313 198.279 300.929 198.723 300.466C199.73 299.284 199.581 297.498 199.065 296.034C198.549 294.569 197.723 293.191 197.525 291.651C196.93 287.044 201.864 283.739 203.529 279.403C204.182 277.701 204.315 275.851 204.442 274.033C204.577 272.08 204.587 269.812 203.087 268.553C201.649 267.347 199.402 267.616 197.898 266.494C196.518 265.465 196.042 263.467 194.535 262.636C193.166 261.881 191.45 262.361 189.928 262.006C187.247 261.381 185.561 258.293 182.823 258.007C181.279 257.846 179.531 258.601 178.265 257.702C177.15 256.909 177.105 255.317 176.893 253.966C176.521 251.866 175.514 249.931 174.008 248.42C172.501 246.91 170.568 245.897 168.469 245.519C166.876 245.263 165.143 245.36 163.788 244.486C162.417 243.6 161.788 241.941 160.71 240.715C158.973 238.738 156.238 238.036 153.676 237.433L143.254 234.985C141.404 234.55 139.02 234.319 138.027 235.939C137.733 236.556 137.525 237.21 137.409 237.883C137.037 239.101 136.288 240.169 135.27 240.935C134.252 241.701 133.018 242.124 131.744 242.145C130.871 240.655 129.456 239.561 127.795 239.09C126.738 238.795 125.607 238.763 124.599 238.329C124.05 238.062 123.561 237.685 123.163 237.222C122.765 236.759 122.466 236.219 122.284 235.637C122.101 235.054 122.04 234.44 122.103 233.833C122.166 233.226 122.353 232.638 122.651 232.105C123.252 231.036 123.484 229.798 123.311 228.584C123.139 227.37 122.571 226.246 121.696 225.386C119.924 223.796 117.36 223.411 114.984 223.571C114.361 222.213 115.402 220.681 116.523 219.695C117.645 218.708 119.007 217.739 119.251 216.265C119.635 213.948 116.677 212.188 114.431 212.879C112.185 213.57 110.751 215.751 109.804 217.9C109.26 219.133 108.798 220.432 107.94 221.472C107.083 222.512 105.702 223.256 104.395 222.923C102.546 222.45 101.832 220.254 101.422 218.39C100.873 215.89 100.321 213.355 100.436 210.798C100.551 208.24 101.414 205.614 103.3 203.883C106.374 201.062 111.09 201.339 115.239 201.789C114.259 200.685 114.501 198.824 115.55 197.785C116.104 197.294 116.769 196.944 117.488 196.768C118.208 196.591 118.959 196.592 119.678 196.772C120.928 197.032 122.054 197.705 122.875 198.683C124.054 200.12 124.389 202.06 125.28 203.69C126.172 205.321 128.175 206.712 129.816 205.837C131.232 205.082 131.457 203.118 131.105 201.552C130.752 199.986 130.003 198.464 130.131 196.863C130.375 193.81 133.541 191.973 136.335 190.715C139.129 189.458 142.328 187.767 142.77 184.736C142.786 184.143 142.898 183.556 143.102 182.999C143.412 182.507 143.842 182.102 144.353 181.823C152.507 176.437 160.797 170.984 170.117 168.041C170.602 167.888 170.659 168.058 171.153 167.938C171.844 167.539 171.386 166.433 170.723 165.988C170.06 165.543 169.174 165.201 169.005 164.421C168.882 163.847 169.22 163.284 169.308 162.703C169.524 161.277 167.817 159.961 166.492 160.531C165.743 159.54 167.224 158.388 168.422 158.059C172.019 157.069 175.711 156.466 179.436 156.26C179.866 156.192 180.306 156.267 180.689 156.473C181.315 156.906 181.235 157.9 180.792 158.518C180.348 159.137 179.658 159.525 179.106 160.048C178.502 160.636 178.072 161.378 177.861 162.194C177.651 163.009 177.669 163.867 177.913 164.674C179.857 165.662 181.971 166.68 184.125 166.332C186.278 165.983 188.19 163.565 187.178 161.633C186.235 159.834 183.403 159.428 182.916 157.457C182.346 155.148 185.615 153.095 184.879 150.834C184.556 149.844 183.569 149.261 182.811 148.546C181.917 147.67 181.308 146.543 181.065 145.314C180.823 144.086 180.958 142.813 181.452 141.662C180.218 141.879 178.95 141.797 177.754 141.423C176.558 141.049 175.47 140.394 174.579 139.512C172.935 137.854 171.624 135.238 169.29 135.312C167.147 135.38 165.302 137.878 163.299 137.116C162.807 136.929 162.287 136.547 161.81 136.771C161.653 136.872 161.522 137.008 161.425 137.168C161.329 137.327 161.27 137.507 161.254 137.693C160.745 140.125 161.62 142.897 160.294 144.999C158.851 147.286 155.512 147.603 153.762 149.666C152.812 150.786 152.444 152.295 151.571 153.475C150.698 154.656 148.845 155.406 147.797 154.378C148.312 153.319 148.453 152.118 148.196 150.969C147.94 149.821 147.301 148.794 146.384 148.055C145.412 147.421 144.363 146.911 143.263 146.538C142.034 146.018 140.865 145.366 139.776 144.595C139.231 144.266 138.787 143.792 138.496 143.226C138.266 142.517 138.297 141.749 138.584 141.061C139.115 139.538 140.052 138.19 141.294 137.161C142.536 136.132 144.036 135.461 145.631 135.222C147.027 135.032 148.65 135.099 149.573 134.037C150.062 133.474 150.318 132.624 151.027 132.396C151.481 132.305 151.952 132.363 152.37 132.561L157.577 134.393C158.158 134.656 158.797 134.761 159.432 134.7C159.746 134.658 160.033 134.498 160.235 134.253C160.437 134.008 160.538 133.696 160.519 133.379C160.353 132.515 159.022 132.1 159.143 131.228C159.211 130.945 159.363 130.69 159.579 130.496C161.458 128.496 163.756 126.937 166.309 125.93C168.862 124.922 171.605 124.491 174.344 124.668C175.001 125.747 173.962 127.024 173.097 127.945C172.232 128.866 171.537 130.512 172.583 131.221C173.012 131.44 173.489 131.547 173.97 131.533C175.252 131.707 176.497 132.084 177.66 132.652C179.459 133.435 181.224 134.291 182.954 135.221C182.801 134.081 182.656 132.879 183.088 131.813C183.52 130.747 184.749 129.91 185.823 130.326C186.857 130.726 187.388 132.095 188.49 132.221C189.96 132.388 190.54 130.217 189.926 128.871C189.312 127.525 188.096 126.399 187.995 124.923C187.926 123.928 188.305 122.693 187.51 122.09C187.227 121.909 186.905 121.796 186.571 121.761L166.707 118.107C165.528 117.89 163.823 118.057 163.771 119.254C163.742 119.923 164.339 120.584 164.075 121.199C163.792 121.855 162.864 121.795 162.189 122.027C161.14 122.387 160.614 123.632 160.715 124.735C160.899 125.832 161.324 126.874 161.959 127.787C160.667 127.247 158.71 127.148 157.418 126.608Z" fill="#7C7C7C"/>
<path d="M141.569 109.753C140.317 109.338 138.967 109.319 137.703 109.698C136.439 110.076 135.322 110.834 134.503 111.868C134.176 112.298 133.902 112.892 134.175 113.358C134.568 114.026 135.568 113.762 136.306 113.523C137.39 113.136 138.569 113.108 139.671 113.443C140.363 113.681 140.983 114.101 141.678 114.329C142.017 114.471 142.387 114.518 142.751 114.465C143.114 114.412 143.456 114.261 143.739 114.028C144.217 113.542 144.247 112.785 144.248 112.104C144.281 111.876 144.262 111.643 144.194 111.423C144.126 111.203 144.009 111.001 143.853 110.831C143.575 110.67 143.262 110.578 142.94 110.562C142.221 110.428 141.57 110.049 141.101 109.487" fill="#7C7C7C"/>
<path d="M148.732 107.76C148.451 107.744 148.172 107.802 147.92 107.926C147.668 108.049 147.452 108.236 147.293 108.467C147.135 108.699 147.038 108.967 147.013 109.247C146.988 109.526 147.035 109.807 147.15 110.063C148.011 110.298 148.91 110.357 149.794 110.236C150.235 110.167 150.646 109.97 150.975 109.668C151.304 109.367 151.536 108.975 151.643 108.542C150.602 108.731 149.528 108.526 148.63 107.967" fill="#7C7C7C"/>
<path d="M172.763 104.431C170.42 104.929 168.144 105.701 165.982 106.733C167.001 107.125 167.867 107.833 168.453 108.754C169.039 109.675 169.313 110.76 169.236 111.848C169.144 112.266 169.155 112.7 169.267 113.113C169.516 113.716 170.237 113.943 170.872 114.098C172.012 114.444 173.202 114.596 174.393 114.547C174.988 114.516 175.566 114.337 176.075 114.026C176.584 113.715 177.007 113.282 177.307 112.767C177.479 112.278 177.682 111.799 177.913 111.335C179.433 109.02 183.951 111.819 185.584 109.582C186.159 108.793 186.107 107.607 186.856 106.982C187.244 106.71 187.694 106.539 188.164 106.483C191.448 105.831 194.765 105.359 198.1 105.069C199.68 104.931 201.74 104.364 201.753 102.779C195.801 101.61 189.629 102.44 184.197 105.14C182.24 106.119 179.652 108.18 177.767 106.881C177.061 106.395 177.096 105.085 176.125 104.539C175.132 103.979 173.817 104.207 172.763 104.431Z" fill="#7C7C7C"/>
<path d="M192.228 108.069L195.022 108.605C194.508 108.583 193.994 108.67 193.516 108.861C193.039 109.052 192.607 109.343 192.25 109.714C191.894 110.085 191.62 110.528 191.449 111.013C191.277 111.499 191.211 112.015 191.254 112.527C193.871 113.401 196.723 112.551 199.479 112.667C202.236 112.783 205.442 114.751 204.972 117.468C204.83 118.29 204.355 119.111 204.602 119.907C204.775 120.465 205.267 120.861 205.545 121.375C206.125 122.447 205.662 123.802 204.93 124.775C204.199 125.749 203.216 126.526 202.574 127.561C200.977 130.135 201.884 133.463 202.835 136.338C203.11 137.425 203.618 138.439 204.324 139.31C205.733 140.807 208.03 140.938 210.086 140.968C211.583 140.989 213.298 140.915 214.245 139.756C215.481 138.243 214.617 135.881 215.43 134.105C216.169 132.491 218.052 131.799 219.758 131.308C222.883 130.409 226.068 129.644 229.023 128.286C232.692 126.599 236.12 123.97 240.153 123.753C241.284 123.692 242.444 123.826 243.533 123.516C244.623 123.206 245.658 122.264 245.576 121.135C245.505 120.17 244.688 119.461 244.05 118.734C243.412 118.006 242.911 116.888 243.497 116.118L254.067 114.145C253.318 112.104 252.734 109.416 254.456 108.087C255.077 107.608 255.909 107.416 256.437 106.837C257.339 105.849 256.886 104.148 255.845 103.308C254.805 102.468 253.398 102.273 252.065 102.162C247.43 101.778 242.769 102.032 238.125 102.286C229.048 102.784 219.971 103.281 210.894 103.778C209.067 103.878 206.957 103.725 205.281 104.349C203.862 104.876 202.853 105.844 201.231 106.185C198.235 106.813 194.939 106.388 192.228 108.069Z" fill="#7C7C7C"/>
<path d="M242.282 130.144C241.997 130.099 241.706 130.165 241.469 130.329C241.312 130.501 241.218 130.723 241.204 130.956C241.023 131.984 241.238 133.042 241.805 133.918C242.094 134.348 242.493 134.693 242.96 134.917C243.428 135.141 243.946 135.236 244.463 135.192C245.721 135.031 246.648 133.959 247.804 133.435C249.587 132.629 257.157 131.372 251.921 128.544C250.116 127.57 248.95 128.43 247.527 129.072C245.909 129.899 244.095 130.27 242.282 130.144V130.144Z" fill="#7C7C7C"/>
<path d="M288.15 106.472C287.539 106.722 287.027 107.167 286.696 107.738C286.543 108.028 286.507 108.366 286.597 108.681C286.686 108.996 286.893 109.265 287.175 109.432C287.403 109.515 287.645 109.554 287.888 109.546L290.375 109.62C291.431 109.651 292.75 109.876 293.034 110.894C293.245 111.649 292.773 112.62 293.342 113.16C293.587 113.349 293.88 113.464 294.188 113.49C295.007 113.7 295.863 113.728 296.693 113.571C298.503 113.085 297.552 111.982 298.122 110.999C298.994 109.495 298.843 110.406 300.379 109.544C301.513 108.907 302.979 107.753 302.032 106.131C300.386 103.31 290.58 105.261 288.15 106.472Z" fill="#7C7C7C"/>
<path d="M337.226 105.054L335.782 105.247C332.526 105.681 329.252 106.119 326.116 107.097C327.474 107.633 328.898 107.982 330.349 108.135C331.148 108.174 331.942 108.287 332.72 108.472C334.105 108.884 335.501 109.948 336.839 109.403C337.669 109.065 337.939 108.202 338.627 107.744C339.101 107.428 340.901 106.916 341.102 106.598C342.729 104.019 338.476 104.887 337.226 105.054Z" fill="#7C7C7C"/>
<path d="M343.566 111.613C341.637 112.691 339.848 114.001 338.238 115.514C337.559 116.151 336.867 116.944 336.928 117.872C337.01 119.106 338.325 119.822 339.465 120.305L344.08 122.258C344.64 121.469 344.128 120.38 343.549 119.605C342.97 118.83 342.283 117.933 342.538 117C342.83 115.935 344.129 115.573 345.217 115.389C346.992 115.091 351.777 115.115 351.202 112.257C350.525 108.889 345.347 110.618 343.566 111.613Z" fill="#7C7C7C"/>
<path d="M342.638 302.186C342.198 303.458 342.156 304.955 342.916 306.065C343.769 307.311 345.476 307.776 346.953 307.46C348.423 307.069 349.734 306.226 350.7 305.051C351.584 304.067 352.311 302.952 352.856 301.747C353.616 299.869 354.153 297.907 354.454 295.904L355.887 288.383C356.207 286.702 356.194 281.549 353.104 283.228C352.26 283.687 350.305 287.308 349.42 288.335C347.825 290.186 347.614 291.981 346.775 294.224C345.723 297.032 343.61 299.373 342.638 302.186Z" fill="#7C7C7C"/>
<path d="M505.876 340.672C504.864 340.278 503.883 339.811 502.939 339.275C501.992 341.876 501.489 344.618 501.45 347.385L508.37 343.471C509.411 342.882 510.591 342.064 510.569 340.869C510.578 340.721 510.548 340.574 510.48 340.442C510.413 340.31 510.311 340.199 510.186 340.12C510.033 340.059 509.865 340.039 509.701 340.063C508.675 340.149 507.739 340.654 506.771 341.005C505.803 341.355 504.672 341.541 503.783 341.02" fill="#7C7C7C"/>
<path d="M542.381 342.996C541.621 343.203 540.88 343.469 540.162 343.792C538.574 344.6 537.493 346.134 536.064 347.198C534.697 348.216 533.051 348.775 531.435 349.318C530.959 349.738 531.178 350.584 531.694 350.953C532.248 351.269 532.885 351.412 533.521 351.364C535.2 351.401 536.969 351.417 538.44 350.606C539.268 350.069 540.044 349.454 540.755 348.769C542.475 347.335 544.54 346.389 546.584 345.475C547.328 345.194 548.015 344.783 548.615 344.261C549.899 342.996 549.99 341.045 548.138 340.614C546.641 340.266 543.806 342.536 542.381 342.996Z" fill="#7C7C7C"/>
<path d="M558.51 332.465C558.593 331.594 558.478 330.717 558.172 329.898C557.866 329.079 557.377 328.34 556.744 327.737C556.725 329.478 556.672 331.333 555.692 332.773C554.994 333.799 553.9 334.492 553.135 335.469C552.37 336.447 552.031 337.996 552.928 338.853C553.501 339.29 554.2 339.53 554.92 339.539C556.706 339.749 558.773 339.867 560.026 338.577C560.709 337.873 561.042 336.83 561.876 336.313C562.186 336.183 562.463 335.984 562.687 335.732C563.031 335.185 562.484 334.464 561.869 334.267C561.253 334.07 560.574 334.163 559.955 333.976C559.337 333.788 558.769 333.093 559.086 332.53" fill="#7C7C7C"/>
<path d="M529.843 268.621C528.906 268.849 527.936 268.906 526.979 268.79C525.389 268.498 524.151 267.3 522.868 266.318C519.816 263.996 516.107 262.7 512.273 262.618C508.785 262.552 505.265 263.497 501.839 262.838C502.063 264.082 503.128 265.015 504.265 265.57C505.401 266.125 506.656 266.404 507.798 266.947C509.627 267.826 511.077 269.335 511.884 271.196C512.251 272.054 512.483 272.988 513.04 273.738C514.179 275.269 516.337 275.605 518.242 275.48C520.726 275.317 523.32 274.603 525.63 275.528C527.398 276.235 528.663 277.782 530.139 278.984C531.615 280.187 533.694 281.079 535.388 280.212C533.628 279.642 532.096 278.525 531.016 277.023C529.936 275.522 529.364 273.714 529.384 271.865C531.046 272.018 535.834 271.958 535.576 269.135C535.357 266.743 531.27 268.363 529.843 268.621Z" fill="#7C7C7C"/>
<path d="M508.099 288.087C508.394 286.469 510.008 285.04 509.505 283.474C509.158 282.391 507.901 281.857 506.764 281.83C505.626 281.803 504.509 282.142 503.371 282.174C502.631 282.135 501.889 282.145 501.15 282.206C498.892 282.577 497.5 284.942 495.373 285.783C494.079 286.295 492.625 286.197 491.28 286.55C488.225 287.353 486.292 290.238 484.157 292.564C480.707 296.306 476.213 298.926 471.256 300.085C469.519 300.487 467.652 300.744 466.272 301.871C464.444 303.364 463.994 305.924 463.587 308.248C462.464 314.667 460.746 320.969 458.458 327.071L465.71 327.996C467.089 328.172 468.518 328.345 469.847 327.936C470.812 327.572 471.727 327.085 472.568 326.488C475.798 324.483 479.413 323.179 483.179 322.659C485.079 322.398 487.07 322.35 488.852 323.056C490.635 323.762 492.164 325.362 492.313 327.273C493.084 327.033 493.905 327.007 494.69 327.198C495.474 327.388 496.192 327.788 496.767 328.355C497.902 329.512 498.646 330.996 498.893 332.598C499.084 333.589 499.275 334.778 500.196 335.194C500.947 335.533 501.808 335.168 502.63 335.102C505.419 334.879 507.733 338.129 510.473 337.569C513.413 336.969 514.134 332.569 517.002 331.687C518.649 331.181 520.959 331.797 521.748 330.265C522.443 328.916 521.056 327.358 521.199 325.847C521.375 323.986 523.571 323.196 525.264 322.402C531.101 319.664 533.871 311.812 531.042 306.021C529.367 302.59 526.069 299.889 525.46 296.119C524.992 293.219 526.136 289.837 524.286 287.554C523.345 286.393 521.751 285.752 521.191 284.366C520.839 283.494 520.981 282.505 520.791 281.583C520.601 280.662 519.797 279.698 518.887 279.937C516.245 280.63 515.401 288.789 513.987 290.771C511.836 293.785 507.422 291.8 508.099 288.087Z" fill="#7C7C7C"/>
<path d="M459.26 271.704C458.357 271.451 457.371 271.202 456.506 271.563C455.641 271.925 455.135 273.195 455.83 273.825C461.262 273.613 466.728 273.403 472.114 274.14C478.319 274.99 484.461 277.095 490.694 276.475C487.133 275.425 483.514 274.586 479.855 273.961L473.753 272.796C472.116 272.454 470.462 272.198 468.798 272.031C465.317 271.744 462.682 272.663 459.26 271.704Z" fill="#7C7C7C"/>
<path d="M464.698 252.792C464.247 252.755 463.689 252.722 463.455 253.11C463.232 253.48 463.488 253.97 463.368 254.385C463.204 254.952 462.461 255.097 461.875 255.02C461.289 254.943 460.656 254.758 460.137 255.04C459.874 255.219 459.676 255.48 459.574 255.781C459.471 256.083 459.469 256.409 459.568 256.712C459.78 257.313 460.123 257.86 460.572 258.313C461.339 259.279 462.214 260.156 463.178 260.926C465.045 262.303 467.575 262.967 468.751 264.967C468.917 265.354 469.172 265.697 469.495 265.968C470.059 266.325 470.796 266.053 471.404 265.776L473.534 264.803C473.918 264.665 474.26 264.432 474.53 264.126C475.017 263.465 474.718 262.527 474.309 261.816C473.901 261.104 473.378 260.369 473.465 259.553C473.622 258.099 475.492 257.543 476.261 256.299C477.036 255.046 476.531 253.43 476.621 251.959C476.725 250.238 477.807 248 476.067 246.715C474.588 245.622 473.174 246.632 472.112 247.838C469.873 250.381 468.814 253.136 464.698 252.792Z" fill="#7C7C7C"/>
<path d="M477.631 227.085C478.358 228.477 479.874 229.308 480.668 230.664C481.527 232.133 481.429 234.032 482.362 235.456C483.319 236.917 485.245 237.693 485.781 239.355C486.367 241.17 485.038 243.376 486.097 244.961C486.295 245.22 486.544 245.436 486.83 245.593C487.115 245.751 487.43 245.848 487.754 245.878C488.079 245.908 488.406 245.87 488.716 245.767C489.025 245.663 489.309 245.497 489.551 245.278C489.997 244.792 490.237 244.151 490.217 243.491C490.198 242.831 489.921 242.205 489.446 241.746C488.819 241.174 487.918 240.927 487.394 240.259C487.121 239.874 486.94 239.431 486.863 238.965C486.577 237.622 486.623 236.229 486.996 234.907C487.136 234.571 487.172 234.201 487.098 233.845C486.862 233.16 485.934 233.111 485.283 232.793C483.803 232.071 483.839 229.984 484.097 228.359C483.925 229.441 480.069 227.601 479.665 226.988C478.863 225.77 479.3 223.421 479.141 222.076C477.409 222.91 476.741 225.383 477.631 227.085Z" fill="#7C7C7C"/>
<path d="M438.782 248.504C438.071 247.708 436.999 246.874 436.044 247.355C435.316 247.721 435.116 248.728 435.402 249.491C435.749 250.233 436.284 250.87 436.954 251.341C438.943 252.981 441.084 254.46 442.819 256.366C445.923 259.776 447.568 264.378 450.944 267.519C451.623 268.247 452.521 268.734 453.503 268.903C454.486 268.995 455.591 268.365 455.704 267.384C455.797 266.576 455.233 265.853 454.683 265.254C453.371 263.828 451.935 262.516 450.697 261.026C450.125 260.453 449.766 259.703 449.678 258.899C449.672 258.097 450.404 257.257 451.182 257.456C450.236 257.214 449.534 255.639 448.146 255.343C446.986 255.096 446.706 255.813 445.325 255.222C442.692 254.093 440.626 250.567 438.782 248.504Z" fill="#7C7C7C"/>
<path d="M500.651 170.956C499.896 170.732 499.154 170.467 498.427 170.162C496.472 169.576 493.885 171.012 494.146 173.035C494.319 174.38 495.571 175.286 496.262 176.453C497.287 178.182 497.014 180.376 496.475 182.313C496.343 182.912 496.092 183.479 495.736 183.98C495.238 184.509 494.643 184.936 493.984 185.24C491.344 186.72 489.015 188.697 487.128 191.062C486.922 191.28 486.78 191.55 486.714 191.842C486.62 192.525 487.307 193.023 487.696 193.593C488.559 194.859 487.935 196.562 488.02 198.091C488.007 198.308 488.05 198.524 488.144 198.719C488.237 198.914 488.38 199.082 488.557 199.207C489.077 199.471 489.693 199.023 489.975 198.512C490.91 196.818 490.206 194.099 491.961 193.282C492.293 193.128 492.695 193.062 492.916 192.771C493.268 192.308 492.929 191.624 493.107 191.071C493.374 190.241 494.51 190.204 495.381 190.241C496.882 190.304 498.383 190.104 499.815 189.651C500.377 189.517 500.887 189.222 501.283 188.801C501.807 188.147 501.761 187.216 501.656 186.384C501.131 182.236 499.817 178.227 497.784 174.573C499.325 174.77 501.002 174.94 502.333 174.137C503.077 173.687 503.971 172.343 503.601 171.427C503.017 169.98 501.962 171.198 500.651 170.956Z" fill="#7C7C7C"/>
<path d="M303.023 193.77C303.207 194.759 303.389 195.8 303.064 196.753C302.74 197.705 301.72 198.501 300.757 198.209C300.009 197.983 299.577 197.231 299.047 196.658C296.095 193.473 289.435 195.317 287.611 191.376C286.867 189.768 287.373 187.841 286.865 186.143C286.545 185.162 285.907 184.315 285.053 183.735C284.199 183.155 283.176 182.875 282.146 182.939C281.206 183.074 280.291 183.347 279.43 183.749C273.664 186.057 267.612 187.57 261.438 188.247C260.264 188.319 259.104 188.53 257.981 188.876C255.446 189.795 253.713 192.144 252.481 194.541C251.248 196.938 250.338 199.533 248.686 201.663C246.949 203.901 244.515 205.469 242.245 207.164C241.37 207.727 240.642 208.49 240.12 209.39C239.628 210.4 239.655 211.575 239.694 212.698L240.158 226.335C240.217 228.089 240.292 229.906 241.078 231.475C242.058 233.436 243.996 234.719 245.34 236.451C246.712 238.23 247.426 240.429 247.363 242.675C247.334 243.577 247.244 244.645 247.948 245.212C248.375 245.489 248.876 245.633 249.386 245.626L267.841 247.135C271.088 247.401 274.685 247.838 276.805 250.31C277.805 251.477 278.609 253.155 280.141 253.28C280.798 253.334 281.438 253.064 282.095 253.012C283.753 252.881 285.21 254.139 286.13 255.525C287.521 257.637 288.153 260.159 287.921 262.678C287.77 264.259 287.28 265.795 287.174 267.38C286.772 273.409 291.885 278.647 291.984 284.689C292.042 288.243 290.355 291.563 288.709 294.714C291.365 298.735 289.19 304.09 290.248 308.792C291.251 313.252 294.971 316.744 295.898 321.22C296.323 323.27 296.347 325.792 298.155 326.847C298.949 327.234 299.828 327.41 300.709 327.358C306.023 327.421 311.277 326.226 316.04 323.869C318.276 322.761 320.593 321.105 320.983 318.641C321.298 316.654 320.29 314.432 321.316 312.701C322.525 310.661 325.622 310.823 327.401 309.255C330.287 306.71 328.037 301.858 329.206 298.193C330.257 294.899 333.876 293.149 335.669 290.193C336.375 288.921 336.881 287.549 337.171 286.124C337.993 282.718 338.504 279.245 338.699 275.747C338.747 273.622 338.904 271.5 339.169 269.391C341.102 257.382 352.979 249.341 356.835 237.805C357.204 236.703 357.377 235.236 356.396 234.613C355.814 234.335 355.155 234.266 354.529 234.417L346.021 235.489C344.965 235.623 343.845 235.747 342.874 235.308C341.904 234.87 341.208 233.642 341.723 232.71C343.168 230.094 340.196 226.788 338.875 224.107C335.319 216.888 331.084 210.023 326.228 203.605C325.917 203.275 325.722 202.853 325.673 202.402L328.088 202.482C327.273 199.559 325.928 196.36 323.086 195.29C321.485 194.688 319.712 194.896 318.004 194.99C313.111 195.257 307.865 194.518 303.023 193.77Z" fill="#7C7C7C"/>
<path d="M318.008 127.892C319.288 129.251 320.723 130.692 322.575 130.929C325.847 131.347 328.2 127.965 329.698 125.027C329.753 125.776 330.099 126.474 330.661 126.972C331.223 127.47 331.958 127.729 332.708 127.695C333.516 127.559 334.287 127.258 334.972 126.81C341.455 123.269 348.717 121.392 356.104 121.349C356.034 120.79 356.172 120.224 356.494 119.761C356.816 119.298 357.298 118.97 357.847 118.842C359.349 118.544 360.702 119.842 361.427 121.191C362.152 122.539 362.603 124.102 363.755 125.111C364.906 126.121 367.135 126.077 367.589 124.615C368.026 123.212 366.563 122.015 365.348 121.188C364.133 120.361 362.853 118.829 363.671 117.609C369.878 116.235 376.124 114.856 382.476 114.583C383.557 114.621 384.635 114.436 385.641 114.038C386.61 113.563 387.38 112.485 387.119 111.438C385.733 111.764 384.281 111.669 382.949 111.167C381.617 110.665 380.464 109.777 379.639 108.618C388.452 107.891 397.826 107.271 405.637 111.416C406.574 113.428 401.797 115.101 403.075 116.915C403.483 117.494 404.3 117.562 405.008 117.575C410.435 117.675 415.894 117.774 421.261 116.955C423.222 116.656 425.203 116.233 427.172 116.476C430.451 116.88 433.256 119.067 436.483 119.781C437.796 120.071 439.269 120.081 440.376 119.317C441.483 118.554 441.958 116.815 441.051 115.823C444.089 112.847 449.131 113.584 453.139 115.009C457.146 116.434 460.943 118.732 465.185 119.049C468.226 119.277 471.31 118.459 474.316 118.979C476.204 119.306 477.962 120.145 479.808 120.661C483.299 121.637 486.993 121.431 490.618 121.478C499.866 121.603 509.014 123.42 517.608 126.839C518.726 127.203 519.75 127.808 520.609 128.611C521.408 129.467 521.816 130.797 521.279 131.838L512.398 130.541C513.235 132.187 515.4 132.468 517.157 133.036C518.915 133.604 520.738 135.544 519.682 137.059C517.777 136.453 516.051 138.356 515.089 140.108C514.127 141.859 512.954 143.957 510.958 144.063C509.171 144.159 507.009 142.638 505.844 143.996C507.454 146.025 508.832 148.228 509.953 150.563C511.104 152.96 511.924 155.98 510.369 158.136C510.124 158.521 509.752 158.809 509.319 158.95C508.048 159.272 507.222 157.718 506.311 156.776C505.163 155.59 503.427 155.254 501.872 154.697C500.317 154.141 498.679 153.046 498.557 151.4C498.482 150.375 499.023 149.423 499.421 148.476C500.091 146.881 500.384 145.152 500.277 143.425C500.19 142.035 499.8 140.59 498.802 139.619C497.804 138.648 496.08 138.34 495.008 139.229C494.508 139.644 494.107 140.308 493.458 140.333C492.31 140.376 491.429 138.377 490.506 139.059C490.614 139.787 490.463 140.529 490.08 141.156C487.325 143.551 483.092 142.538 479.541 143.384C477.852 143.867 476.235 144.573 474.732 145.483C474.17 145.723 473.692 146.125 473.358 146.636C472.915 147.497 473.403 148.6 474.185 149.173C475.014 149.681 475.945 149.999 476.911 150.103C481.241 150.923 485.634 152.192 489.053 154.972C492.471 157.752 494.713 162.347 493.631 166.617L485.093 158.462C485.417 161.886 485.601 165.32 485.645 168.763C485.7 169.436 485.608 170.112 485.374 170.745C484.765 172.089 483.115 172.541 481.67 172.838C481.268 172.914 480.886 173.074 480.551 173.309C480.215 173.543 479.933 173.845 479.722 174.196C479.512 174.547 479.378 174.939 479.33 175.345C479.282 175.751 479.32 176.163 479.442 176.554C479.956 178.227 481.237 179.532 482.409 180.832C483.582 182.132 484.736 183.61 484.89 185.354C485.043 187.098 483.727 189.063 481.98 188.942C480.655 188.85 479.673 187.665 479.108 186.464C478.543 185.263 478.207 183.925 477.358 182.905C474.789 179.816 469.018 181.14 466.717 177.847C466.13 178.512 465.723 179.316 465.535 180.183C465.346 181.049 465.383 181.949 465.64 182.798C466.711 182.128 468.177 182.751 468.981 183.724C469.786 184.698 470.165 185.946 470.797 187.039C471.65 188.515 473.006 189.823 473.125 191.522C473.094 192.165 473.105 192.809 473.158 193.45C473.369 194.48 474.24 195.22 474.844 196.081C476.249 198.084 476.179 200.835 475.274 203.108C474.368 205.38 472.741 207.279 471.13 209.121C468.315 212.336 465.443 215.533 462.107 218.204C461.155 218.966 460.139 219.715 459.546 220.78C458.953 221.846 458.922 223.341 459.833 224.152C459.181 224.184 458.012 224.505 457.36 224.537C457.131 221.923 457.081 219.296 457.211 216.675C454.638 215.44 451.868 218.747 452.2 221.581C452.532 224.414 454.582 226.688 456.042 229.14C457.109 230.933 457.903 233.023 457.546 235.079C457.19 237.135 455.354 239.031 453.275 238.85C449.967 238.561 448.584 233.815 445.309 233.272C445.02 233.204 444.717 233.234 444.447 233.358C443.96 233.624 443.876 234.275 443.849 234.828C443.715 237.546 443.599 240.371 444.66 242.877C446.212 246.542 450.223 249.62 449.382 253.511C444.85 251.405 442.493 246.324 441.423 241.444C440.353 236.564 440.175 231.441 438.257 226.827C436.8 228.693 433.739 227.151 432.409 225.193C431.147 223.338 430.37 221.191 429.147 219.31C427.923 217.429 426.048 215.745 423.805 215.642C421.455 215.533 419.416 217.146 417.623 218.67C416.148 219.923 414.635 221.225 413.773 222.957C412.519 225.477 412.847 228.448 412.786 231.262C412.721 234.304 412.076 237.514 410.002 239.742C407.927 241.969 404.098 242.745 401.81 240.737C400.616 239.689 400.037 238.124 399.522 236.621C397.039 229.376 394.97 221.996 393.327 214.516C392.943 216.223 391.443 218.424 390.011 217.418C389.689 217.148 389.429 216.812 389.246 216.434C386.574 211.906 381.625 209.191 376.624 207.562C371.624 205.934 366.362 205.175 361.417 203.385C358.646 202.382 355.999 201.064 353.529 199.457C352.899 200.382 352.531 201.46 352.465 202.577C352.398 203.694 352.635 204.808 353.15 205.801C354.247 207.742 356.729 208.866 358.854 208.187C359.952 207.836 360.879 207.074 361.969 206.698C363.058 206.322 364.52 206.507 364.997 207.556C365.453 208.56 364.764 209.775 365.106 210.824C365.626 212.421 368.036 212.544 368.879 213.997C369.506 215.078 368.99 216.514 368.095 217.387C367.199 218.259 366.005 218.738 364.912 219.345C361.367 221.316 358.845 224.68 355.747 227.298C352.648 229.915 348.276 231.826 344.583 230.147C345.464 225.692 340.154 222.421 339.177 217.985C338.856 216.526 339.022 214.975 338.563 213.552C337.899 211.492 336.071 210.076 334.571 208.515C332.752 206.601 331.335 204.343 330.403 201.873C329.471 199.403 329.044 196.771 329.147 194.133C329.228 192.3 329.564 190.437 329.147 188.65C328.729 186.864 327.249 185.135 325.415 185.215C321.227 185.4 315.95 185.712 313.753 182.143C312.968 180.869 312.627 179.004 313.761 178.028C314.561 177.339 315.742 177.404 316.792 177.507L326.229 178.435C328.437 178.652 330.823 178.831 332.717 177.678C334.611 176.525 335.431 173.463 333.678 172.106C332.396 171.115 330.1 171.168 329.728 169.592C329.418 168.279 330.871 166.789 330.086 165.692C329.523 164.905 328.257 165.123 327.49 165.713C326.723 166.303 326.167 167.166 325.308 167.612C323.802 168.395 322.003 167.65 320.383 167.143C318.763 166.637 316.591 166.594 315.805 168.098C314.926 169.78 316.585 171.984 315.712 173.67C314.559 175.898 310.654 174.629 309.035 176.546C307.176 178.746 310.299 182.026 309.672 184.836C308.872 185.232 307.983 185.414 307.092 185.364C306.2 185.314 305.337 185.034 304.586 184.55C303.848 184.048 303.259 183.356 302.884 182.546C302.508 181.737 302.358 180.84 302.451 179.953C302.606 178.689 303.266 177.398 302.824 176.204C302.467 175.238 301.497 174.663 300.595 174.165L291.424 169.099C290.573 170.678 291.649 172.635 292.995 173.821C294.342 175.007 296.028 175.9 296.912 177.461C297.472 178.542 297.597 179.796 297.263 180.966C296.928 182.137 296.16 183.136 295.114 183.759C294.983 183.849 294.833 183.91 294.677 183.938C294.52 183.965 294.359 183.958 294.205 183.917C294.058 183.831 293.931 183.717 293.829 183.581C293.728 183.445 293.655 183.29 293.615 183.125C291.997 178.986 289.568 174.905 285.684 172.743C281.8 170.581 276.219 171.025 273.672 174.668C273.067 175.533 272.661 176.519 272.134 177.433C269.334 182.293 263.331 184.594 257.723 184.444C257.174 184.474 256.629 184.346 256.151 184.074C255.245 183.449 255.285 182.121 255.424 181.029L256.013 176.393C256.131 175.462 256.302 174.434 257.039 173.853C258.078 173.034 259.577 173.55 260.9 173.531C261.902 173.484 262.866 173.131 263.661 172.518C264.455 171.905 265.042 171.063 265.341 170.105C265.608 169.139 265.607 168.117 265.336 167.151C265.066 166.186 264.537 165.312 263.806 164.624C263.2 164.055 262.386 163.34 262.706 162.572C262.834 162.36 263.007 162.178 263.212 162.04C263.418 161.902 263.651 161.81 263.896 161.771C266.273 161.081 268.784 160.901 271.121 160.087C273.458 159.273 275.724 157.607 276.277 155.196C276.447 154.457 276.524 153.562 277.188 153.196C277.521 153.055 277.879 152.982 278.241 152.981C279.508 152.801 280.661 152.153 281.475 151.165C282.288 150.178 282.701 148.921 282.634 147.644C283.754 146.862 285.323 147.437 286.407 148.269C287.49 149.101 288.447 150.2 289.765 150.559C292.222 151.227 294.597 149.053 297.143 149.043C298.214 149.039 299.322 149.417 300.329 149.054C301.351 148.686 301.96 147.67 302.744 146.92C303.528 146.169 304.903 145.711 305.627 146.52L305.011 141.957C306.252 142.27 307.546 142.314 308.805 142.087C310.065 141.859 311.262 141.365 312.314 140.637L304.349 137.947C304.072 137.877 303.816 137.741 303.604 137.549C303.025 136.925 303.601 135.954 304.071 135.245C305.198 133.55 305.387 130.758 303.535 129.915C302.27 129.339 300.819 130.03 299.605 130.706L293.792 133.947C293.607 135.051 294.958 135.677 295.796 136.421C296.302 136.871 296.661 137.464 296.824 138.122C296.988 138.779 296.948 139.471 296.711 140.106C296.474 140.74 296.051 141.289 295.496 141.679C294.942 142.068 294.282 142.281 293.604 142.29C293.987 142.787 294.253 143.364 294.383 143.979C294.512 144.593 294.502 145.228 294.352 145.838L290.441 146.119C290.002 146.207 289.545 146.118 289.172 145.871C288.754 145.5 288.81 144.849 288.713 144.298C288.479 142.969 287.177 142.037 285.848 141.798C284.519 141.559 283.159 141.866 281.843 142.168C281.284 142.369 280.67 142.355 280.121 142.128C279.806 141.924 279.567 141.622 279.44 141.269C278.863 139.87 279.403 138.227 280.329 137.031C281.256 135.835 282.525 134.961 283.664 133.965C286.389 131.575 288.391 128.472 289.443 125.005C291.597 124.103 293.826 122.878 295.979 121.976C299.299 120.296 303.022 119.575 306.729 119.894L314.021 120.033C316.18 120.074 318.398 120.127 320.394 120.95C322.391 121.773 324.145 123.552 324.283 125.706C324.324 125.95 324.303 126.2 324.221 126.434C324.14 126.667 324 126.876 323.815 127.041C323.533 127.195 323.214 127.267 322.893 127.249C320.88 127.319 320.021 127.821 318.008 127.892Z" fill="#7C7C7C"/>
<path d="M259.883 150.736C260.168 150.466 260.373 150.124 260.476 149.745C260.578 149.367 260.575 148.967 260.465 148.591C259.772 148.323 259.018 148.255 258.287 148.393C257.557 148.53 256.88 148.869 256.332 149.371C255.9 149.808 255.528 150.3 255.225 150.834C254.267 152.397 253.419 154.263 253.974 156.01C254.02 156.201 254.103 156.38 254.218 156.538C254.334 156.696 254.48 156.83 254.648 156.93C254.897 157.03 255.165 157.072 255.432 157.053C256.488 157.052 257.543 156.987 258.59 156.859C259.234 156.78 259.981 156.599 260.23 156C260.557 155.214 259.766 154.324 259.996 153.504C260.148 153.137 260.378 152.808 260.67 152.539C260.815 152.404 260.926 152.236 260.995 152.051C261.064 151.865 261.089 151.665 261.068 151.468C260.974 151.084 260.385 150.865 260.173 151.2" fill="#7C7C7C"/>
<path d="M265.357 143.642C264.42 143.427 263.453 143.367 262.496 143.463C262.284 143.457 262.074 143.504 261.886 143.601C261.703 143.736 261.571 143.927 261.51 144.145C261.308 144.794 261.358 145.495 261.649 146.109C261.941 146.722 262.453 147.204 263.084 147.457C263.428 147.536 263.757 147.668 264.06 147.849C264.869 148.477 264.354 149.76 264.507 150.772C264.679 151.909 265.78 152.863 265.578 153.995C265.419 154.887 264.466 155.593 264.619 156.486C264.78 157.421 265.967 157.702 266.913 157.777C267.462 157.873 268.026 157.809 268.539 157.591C269.052 157.24 269.418 156.711 269.564 156.107C269.952 154.954 270.114 153.738 270.044 152.524C270.04 151.972 269.901 151.429 269.64 150.943C269.355 150.557 269.039 150.196 268.695 149.862C266.882 147.754 268.791 144.61 265.357 143.642Z" fill="#7C7C7C"/>
<path opacity="0.8" d="M503.754 308.768C503.754 308.768 364.902 229.098 305.124 244.194C305.124 244.194 178.437 257.821 163.755 287.802C163.755 287.802 123.484 162.009 108.801 157.815" stroke="#6762B9" stroke-width="2" stroke-miterlimit="10"/>
<path opacity="0.8" d="M163.755 287.802C187.037 225.744 396.783 156.977 396.783 156.977C366.999 164.524 305.124 244.193 305.124 244.193C305.124 244.193 174.242 149.01 108.801 157.815C108.801 157.815 396.993 167.25 503.754 308.767" stroke="#6762B9" stroke-width="2" stroke-miterlimit="10"/>
<path d="M108.801 163.895C112.16 163.895 114.884 161.173 114.884 157.815C114.884 154.457 112.16 151.735 108.801 151.735C105.442 151.735 102.718 154.457 102.718 157.815C102.718 161.173 105.442 163.895 108.801 163.895Z" fill="white"/>
<path d="M163.755 293.882C167.114 293.882 169.837 291.16 169.837 287.802C169.837 284.444 167.114 281.722 163.755 281.722C160.395 281.722 157.672 284.444 157.672 287.802C157.672 291.16 160.395 293.882 163.755 293.882Z" fill="white"/>
<path d="M396.783 163.057C400.143 163.057 402.866 160.334 402.866 156.977C402.866 153.619 400.143 150.896 396.783 150.896C393.424 150.896 390.701 153.619 390.701 156.977C390.701 160.334 393.424 163.057 396.783 163.057Z" fill="white"/>
<path d="M503.754 314.848C507.113 314.848 509.837 312.125 509.837 308.768C509.837 305.41 507.113 302.688 503.754 302.688C500.395 302.688 497.671 305.41 497.671 308.768C497.671 312.125 500.395 314.848 503.754 314.848Z" fill="white"/>
<path d="M305.124 250.273C308.483 250.273 311.206 247.551 311.206 244.193C311.206 240.835 308.483 238.113 305.124 238.113C301.764 238.113 299.041 240.835 299.041 244.193C299.041 247.551 301.764 250.273 305.124 250.273Z" fill="white"/>
</g>
<defs>
<clipPath id="clip0_41_10">
<rect width="598" height="444" fill="white"/>
</clipPath>
</defs>
</svg>
