<svg width="100" height="110" viewBox="0 0 100 110" fill="none" xmlns="http://www.w3.org/2000/svg">
<rect width="100" height="110" fill="#051821"/>
<path d="M51.7536 10.9546C53.764 13.8529 55.5962 16.8708 57.2402 19.9916C57.4821 19.9574 57.726 19.94 57.9703 19.9398C58.9563 19.94 59.9222 20.2178 60.7576 20.7415C61.593 21.2652 62.264 22.0135 62.6939 22.9008C65.0311 22.6918 67.3751 22.568 69.7212 22.5298C71.0729 22.5088 72.4302 22.5172 73.7938 22.5522C68.6271 15.8917 60.7262 11.4677 51.7536 10.9546ZM47.499 11.0106C47.3961 11.019 47.2925 11.0246 47.1896 11.0337C44.8271 15.8679 42.9791 20.6447 41.6582 25.3592C42.2247 25.7097 42.7193 26.1649 43.1156 26.7004C46.3 25.737 49.5311 24.9357 52.7966 24.2994C52.9709 23.2873 53.4382 22.3486 54.1406 21.5995C52.2527 18.0197 50.0456 14.4889 47.499 11.0106ZM42.991 11.726C35.6926 13.4646 29.3079 17.8689 25.0906 24.074C28.3216 24.815 31.5204 25.6903 34.6785 26.6976C35.104 26.1241 35.6419 25.6435 36.2595 25.2851C36.8771 24.9266 37.5612 24.6979 38.2702 24.613C39.4427 20.3409 41.0163 16.0415 42.991 11.726ZM71.7771 26.0186C68.8497 25.9997 65.9531 26.1194 63.0845 26.3686C62.8294 27.4754 62.2223 28.4697 61.3541 29.2022C62.3196 31.798 63.1415 34.445 63.816 37.1311C64.5018 37.2039 65.1666 37.4112 65.7723 37.741C66.378 38.0708 66.9128 38.5167 67.3461 39.0533C71.404 37.8376 75.5367 36.8871 79.7179 36.2078C79.1544 32.6714 77.9601 29.265 76.192 26.1509C74.7129 26.0739 73.2415 26.0284 71.7771 26.0186ZM23.2118 27.252C21.6971 30.2014 20.6834 33.3822 20.2123 36.6642C24.6167 34.1358 29.096 31.9294 33.6523 30.0576C33.6518 30.0506 33.6514 30.0436 33.6509 30.0366C30.2685 28.9572 26.7839 28.0381 23.2118 27.252ZM53.3776 27.7308C50.2628 28.3383 47.1805 29.1023 44.1425 30.0198C44.1403 30.0793 44.137 30.1388 44.1327 30.1983C49.5583 32.4971 54.7698 35.2715 59.7063 38.4891C59.9356 38.2785 60.1833 38.0888 60.4462 37.9221C59.8057 35.3859 59.0262 32.8868 58.111 30.4363C58.0641 30.4379 58.0172 30.4388 57.9703 30.4391C57.0327 30.4387 56.1124 30.1873 55.3048 29.7109C54.4973 29.2345 53.8314 28.5512 53.3776 27.7308ZM34.9536 33.2895C29.8499 35.393 24.8344 37.9389 19.9022 40.9027C19.9022 40.9356 19.8994 40.9671 19.8994 41C19.8994 48.9562 22.9745 56.1746 27.9956 61.5499C30.8595 58.9884 33.8477 56.5693 36.9493 54.3014C35.6333 47.7921 35.4422 41.1379 36.3046 34.3899C35.7962 34.1013 35.3396 33.7285 34.9536 33.2895ZM42.7383 33.4008C41.9319 34.267 40.8564 34.8354 39.6863 35.0136C38.9499 40.8201 39.0549 46.5258 40.0419 52.1244C45.7525 48.2499 51.7403 44.9921 58.0123 42.3846C58.0123 42.3736 58.0123 42.3627 58.0123 42.3517C58.0129 42.0963 58.032 41.8413 58.0697 41.5887C53.2175 38.4012 48.086 35.6606 42.7383 33.4008ZM80.0665 39.6966C76.163 40.342 72.304 41.2323 68.5123 42.3622C68.5108 43.1233 68.3439 43.8749 68.023 44.5651C71.3556 47.2883 74.5052 50.2281 77.4513 53.3655C79.2011 49.4781 80.1038 45.263 80.0994 41C80.0994 40.5632 80.0854 40.1285 80.0665 39.6966ZM59.1939 45.6669C52.7707 48.3486 46.6562 51.745 40.8266 55.8211C42.1006 60.9577 44.1285 66.0012 46.9369 70.946C47.9435 71.0475 48.9655 71.0993 49.9994 71.0993C54.0818 71.0993 57.9703 70.2873 61.5165 68.8215C62.7016 61.5317 62.9347 54.4218 62.1689 47.4855C60.999 47.2359 59.9494 46.5943 59.1939 45.6669ZM65.6206 47.1089C66.3416 53.5839 66.2331 60.1919 65.3336 66.9133C69.5863 64.3969 73.1554 60.8741 75.7272 56.6548C72.5957 53.2313 69.2178 50.0415 65.6206 47.111V47.1089ZM37.8236 57.9974C35.3141 59.8883 32.8833 61.8815 30.5373 63.9719C34.0173 66.9267 38.1263 69.0475 42.5507 70.1725C40.5074 66.1853 38.9373 62.1225 37.8236 57.9974Z" fill="url(#paint0_linear_785_244)"/>
<path d="M20.5 94C19.46 94.8 18.0133 95.2 16.16 95.2C14.2667 95.2 12.7333 94.5733 11.56 93.32C10.3867 92.0533 9.8 90.4733 9.8 88.58C9.8 87.38 10.0533 86.2667 10.56 85.24C11.0667 84.2 11.78 83.3667 12.7 82.74C13.62 82.1133 14.7133 81.8 15.98 81.8C17.06 81.8 17.96 81.94 18.68 82.22C19.4133 82.5 20.0467 82.8667 20.58 83.32L20.94 85.82L19.68 85.94L19.32 84.04C18.8933 83.76 18.4333 83.54 17.94 83.38C17.4467 83.2067 16.8333 83.12 16.1 83.12C14.6733 83.12 13.52 83.6267 12.64 84.64C11.7733 85.6533 11.34 86.9467 11.34 88.52C11.34 90.1333 11.7867 91.4333 12.68 92.42C13.5867 93.3933 14.8133 93.88 16.36 93.88C17.4933 93.88 18.4467 93.6867 19.22 93.3L19.6 91.38L20.84 91.5L20.5 94ZM31.4497 90.54C31.4497 91.8867 31.0497 93 30.2497 93.88C29.4497 94.76 28.363 95.2 26.9897 95.2C25.643 95.2 24.583 94.7733 23.8097 93.92C23.0497 93.0667 22.6697 91.9667 22.6697 90.62C22.6697 89.3267 23.043 88.22 23.7897 87.3C24.5364 86.3667 25.6297 85.9 27.0697 85.9C28.523 85.9 29.6164 86.36 30.3497 87.28C31.083 88.1867 31.4497 89.2733 31.4497 90.54ZM29.9697 90.52C29.9697 89.5067 29.7097 88.6867 29.1897 88.06C28.683 87.42 27.963 87.1 27.0297 87.1C26.0964 87.1 25.3764 87.4267 24.8697 88.08C24.3764 88.7333 24.1297 89.5533 24.1297 90.54C24.1297 91.5133 24.3764 92.3333 24.8697 93C25.363 93.6667 26.083 94 27.0297 94C27.9764 94 28.703 93.6733 29.2097 93.02C29.7164 92.3533 29.9697 91.52 29.9697 90.52ZM49.2636 95H45.0036V93.86H46.3036V89.72C46.3036 88.76 46.1103 88.0867 45.7236 87.7C45.3503 87.3 44.8703 87.1 44.2836 87.1C43.4703 87.1 42.8436 87.4067 42.4036 88.02C41.9636 88.6333 41.7369 89.22 41.7236 89.78V93.86H43.2636V95H39.0236V93.86H40.3036V89.72C40.3036 88.7467 40.1169 88.0667 39.7436 87.68C39.3703 87.2933 38.8969 87.1 38.3236 87.1C37.4969 87.1 36.8636 87.4 36.4236 88C35.9969 88.5867 35.7703 89.1667 35.7436 89.74V93.86H37.3836V95H32.7836V93.86H34.3436V87.24H32.7636V86.1H35.7436V87.76C36.0369 87.2267 36.4303 86.7867 36.9236 86.44C37.4169 86.0933 38.0169 85.92 38.7236 85.92C39.4169 85.92 40.0169 86.0933 40.5236 86.44C41.0436 86.7867 41.3969 87.3267 41.5836 88.06C41.8503 87.4333 42.2436 86.92 42.7636 86.52C43.2969 86.12 43.9503 85.92 44.7236 85.92C45.5769 85.92 46.2836 86.1867 46.8436 86.72C47.4169 87.2533 47.7036 88.1133 47.7036 89.3V93.86H49.2636V95ZM59.6892 90.3C59.6892 91.0867 59.5492 91.86 59.2692 92.62C59.0026 93.3667 58.5692 93.9867 57.9692 94.48C57.3826 94.96 56.6026 95.2 55.6292 95.2C54.2826 95.2 53.3026 94.7 52.6892 93.7V98.12H54.7492V99.26H49.7092V98.12H51.2892V87.24H49.6892V86.1H52.6892V87.96C52.9559 87.4267 53.3426 86.9533 53.8492 86.54C54.3559 86.1267 55.0226 85.92 55.8492 85.92C56.9959 85.92 57.9226 86.3067 58.6292 87.08C59.3359 87.8533 59.6892 88.9267 59.6892 90.3ZM58.2092 90.42C58.2092 89.3533 57.9492 88.54 57.4292 87.98C56.9092 87.4067 56.2626 87.12 55.4892 87.12C54.6892 87.12 54.0292 87.44 53.5092 88.08C52.9892 88.7067 52.7159 89.36 52.6892 90.04V91.36C52.6892 92.1067 52.9492 92.7333 53.4692 93.24C53.9892 93.7467 54.6159 94 55.3492 94C56.3492 94 57.0759 93.64 57.5292 92.92C57.9826 92.2 58.2092 91.3667 58.2092 90.42ZM62.0653 86.78C62.532 86.4733 63.0253 86.2533 63.5453 86.12C64.0653 85.9867 64.6186 85.92 65.2053 85.92C67.3253 85.92 68.3853 86.9133 68.3853 88.9V93.14C68.3853 93.78 68.6386 94.1 69.1453 94.1C69.372 94.1 69.572 94.06 69.7453 93.98L69.7653 94.9C69.4053 95.1 69.0186 95.2 68.6053 95.2C67.552 95.2 67.012 94.6 66.9853 93.4V93.36C66.7053 93.84 66.3053 94.2667 65.7853 94.64C65.2786 95.0133 64.6653 95.2 63.9453 95.2C63.3586 95.2 62.7586 95.02 62.1453 94.66C61.5453 94.3 61.2453 93.6467 61.2453 92.7C61.2453 91.58 61.6853 90.8467 62.5653 90.5C63.4586 90.14 64.4053 89.96 65.4053 89.96C65.672 89.96 65.9386 89.9667 66.2053 89.98C66.4853 89.9933 66.7453 90.0133 66.9853 90.04V89.24C66.9853 88.6 66.8453 88.08 66.5653 87.68C66.2986 87.28 65.7653 87.08 64.9653 87.08C64.312 87.08 63.7386 87.2 63.2453 87.44L62.9053 88.98L61.7453 88.84L62.0653 86.78ZM66.9853 91.66V90.98C66.732 90.9667 66.4653 90.9467 66.1853 90.92C65.9053 90.8933 65.6186 90.88 65.3253 90.88C64.6586 90.88 64.052 90.9867 63.5053 91.2C62.972 91.4 62.7053 91.8467 62.7053 92.54C62.7053 93.1133 62.8853 93.5067 63.2453 93.72C63.6053 93.9333 63.9786 94.04 64.3653 94.04C64.9786 94.04 65.552 93.8267 66.0853 93.4C66.632 92.9733 66.932 92.3933 66.9853 91.66ZM81.3933 95H76.8933V93.86H78.4333V89.72C78.4333 88.76 78.2399 88.0867 77.8533 87.7C77.4666 87.3 76.9733 87.1 76.3733 87.1C75.5733 87.1 74.9266 87.3667 74.4333 87.9C73.9533 88.42 73.6999 89.02 73.6733 89.7V93.86H75.2333V95H70.7133V93.86H72.2733V87.24H70.6733V86.1H73.6733V87.68C74.3133 86.5067 75.3533 85.92 76.7933 85.92C77.6599 85.92 78.3866 86.1867 78.9733 86.72C79.5599 87.2533 79.8533 88.1133 79.8533 89.3V93.86H81.3933V95ZM91.1494 87.24H90.0894L86.9494 95L85.7494 98.12H87.2694V99.26H82.7494V98.12H84.4094L85.5694 94.98L82.3294 87.24H81.2694V86.1H85.3894V87.24H83.8294L86.3294 93.22H86.4494L88.6694 87.24H87.2294V86.1H91.1494V87.24Z" fill="white"/>
<defs>
<linearGradient id="paint0_linear_785_244" x1="49.9994" y1="10.9546" x2="49.9994" y2="71.0993" gradientUnits="userSpaceOnUse">
<stop stop-color="#CD2A82"/>
<stop offset="1" stop-color="#01C8A4"/>
</linearGradient>
</defs>
</svg>
